<!-- Generated by readme-aura https://github.com/collectioneur/readme-aura -->
<svg width="800" height="240" viewBox="0 0 800 240" xmlns="http://www.w3.org/2000/svg"><defs><clipPath id="satori_bc-id"><rect x="0" y="0" width="800" height="240"/></clipPath></defs><mask id="satori_om-id"><rect x="0" y="1" width="800" height="239" fill="#fff"/><path width="800" height="240" fill="none" stroke="#000" stroke-width="2" d="M0,0 A0,0 0 0 1 0,0 h800 A0,0 0 0 1 800,0"/></mask><rect x="0" y="0" width="800" height="240" fill="#ffffff"/><path width="800" height="240" clip-path="url(#satori_bc-id)" fill="none" stroke="#d1d9e0" stroke-width="2" d="M0,0 A0,0 0 0 1 0,0 h800 A0,0 0 0 1 800,0"/><mask id="satori_om-id-0"><rect x="0" y="17" width="800" height="24" fill="#fff"/></mask><mask id="satori_om-id-0-0"><rect x="0" y="17" width="150" height="24" fill="#fff"/></mask><g  ><path fill="#1f2328" d="M3.3 35L1.2 35L1.2 23.3L6.9 23.3Q7.6 23.3 8.2 23.5Q8.8 23.6 9.3 23.8Q9.7 24.1 10.0 24.5Q10.4 24.9 10.5 25.4Q10.7 25.9 10.7 26.5L10.7 26.5Q10.7 27.6 10.2 28.3Q9.6 29.1 8.6 29.4L8.6 29.4L8.6 29.4Q9.3 29.6 9.7 29.9Q10.1 30.2 10.3 30.6Q10.5 31.1 10.5 31.7L10.5 31.7L10.5 33.7Q10.5 34.0 10.5 34.3Q10.5 34.7 10.7 35L10.7 35L8.5 35Q8.4 34.8 8.4 34.4Q8.4 34.1 8.4 33.7L8.4 33.7L8.4 32.1Q8.4 31.6 8.2 31.2Q8.0 30.8 7.6 30.6Q7.2 30.4 6.4 30.4L6.4 30.4L3.3 30.4L3.3 35ZM3.3 25.1L3.3 28.8L6.4 28.8Q7.6 28.8 8.1 28.2Q8.5 27.7 8.5 26.9L8.5 26.9Q8.5 26.4 8.4 26.1Q8.2 25.7 8.0 25.5Q7.7 25.3 7.3 25.2Q6.9 25.1 6.4 25.1L6.4 25.1L3.3 25.1ZM16.1 35.1L16.1 35.1Q14.8 35.1 13.9 34.6Q13.0 34.1 12.5 33.1Q12.0 32.1 12.0 30.8L12.0 30.8Q12.0 29.4 12.5 28.4Q13.0 27.4 13.9 26.9Q14.8 26.3 16.0 26.3L16.0 26.3Q17.4 26.3 18.3 27.0Q19.2 27.6 19.6 28.7Q20.0 29.8 19.9 31.2L19.9 31.2L14 31.2Q14 32.0 14.3 32.5Q14.5 33.1 15 33.4Q15.5 33.6 16.1 33.6L16.1 33.6Q16.9 33.6 17.3 33.3Q17.8 33 18.0 32.5L18.0 32.5L19.9 32.5Q19.7 33.3 19.2 33.9Q18.7 34.5 17.9 34.8Q17.1 35.1 16.1 35.1ZM14.0 29.9L14.0 29.9L18.0 29.9Q18.0 29.2 17.8 28.8L17.8 28.8Q17.5 28.3 17.1 28.1Q16.6 27.8 16.0 27.8L16.0 27.8Q15.4 27.8 15.0 28.1Q14.5 28.4 14.3 28.9L14.3 28.9Q14.0 29.3 14.0 29.9ZM25.2 35.1L25.2 35.1Q24.3 35.1 23.5 34.8Q22.8 34.5 22.2 33.9Q21.6 33.4 21.4 32.5Q21.1 31.7 21.1 30.7L21.1 30.7Q21.1 29.8 21.4 28.9Q21.7 28.1 22.2 27.5Q22.8 27.0 23.6 26.6Q24.4 26.3 25.3 26.3L25.3 26.3Q26.4 26.3 27.2 26.7Q28.0 27.1 28.5 27.8Q29.0 28.5 29.1 29.4L29.1 29.4L27.1 29.4Q27.0 29.0 26.8 28.6Q26.5 28.3 26.1 28.1Q25.7 28.0 25.3 28.0L25.3 28.0Q24.7 28.0 24.3 28.2Q23.9 28.4 23.7 28.7Q23.4 29.1 23.2 29.6Q23.1 30.1 23.1 30.7L23.1 30.7Q23.1 31.7 23.4 32.3Q23.6 32.9 24.1 33.2Q24.6 33.5 25.2 33.5L25.2 33.5Q25.8 33.5 26.2 33.3Q26.6 33.1 26.9 32.8Q27.1 32.4 27.2 32.0L27.2 32.0L29.1 32.0Q29.1 32.9 28.5 33.6Q28.0 34.4 27.2 34.8Q26.3 35.1 25.2 35.1ZM34.2 35.1L34.2 35.1Q32.9 35.1 32.0 34.6Q31.1 34.1 30.7 33.1Q30.2 32.1 30.2 30.8L30.2 30.8Q30.2 29.4 30.7 28.4Q31.1 27.4 32.0 26.9Q32.9 26.3 34.2 26.3L34.2 26.3Q35.6 26.3 36.5 27.0Q37.4 27.6 37.8 28.7Q38.2 29.8 38.0 31.2L38.0 31.2L32.1 31.2Q32.1 32.0 32.4 32.5Q32.7 33.1 33.1 33.4Q33.6 33.6 34.2 33.6L34.2 33.6Q35.0 33.6 35.5 33.3Q35.9 33 36.1 32.5L36.1 32.5L38.0 32.5Q37.9 33.3 37.3 33.9Q36.8 34.5 36.0 34.8Q35.2 35.1 34.2 35.1ZM32.1 29.9L32.1 29.9L36.1 29.9Q36.1 29.2 35.9 28.8L35.9 28.8Q35.6 28.3 35.2 28.1Q34.8 27.8 34.2 27.8L34.2 27.8Q33.6 27.8 33.1 28.1Q32.7 28.4 32.4 28.9L32.4 28.9Q32.2 29.3 32.1 29.9ZM41.7 35L39.7 35L39.7 26.5L41.6 26.5L41.7 28.1L41.8 28.1Q42.1 27.2 42.9 26.8Q43.6 26.3 44.6 26.3L44.6 26.3Q45.2 26.3 45.8 26.5Q46.3 26.7 46.7 27.2Q47.1 27.6 47.4 28.3Q47.6 28.9 47.6 29.9L47.6 29.9L47.6 35L45.6 35L45.6 30.3Q45.6 29.5 45.4 29.0Q45.2 28.5 44.8 28.2Q44.4 28.0 43.8 28.0L43.8 28.0Q43.1 28.0 42.7 28.3Q42.2 28.6 41.9 29.1Q41.7 29.7 41.7 30.3L41.7 30.3L41.7 35ZM54.2 35L52.4 35Q51.4 35 50.9 34.5Q50.4 34.0 50.4 33.0L50.4 33.0L50.4 28.1L48.8 28.1L48.8 26.5L50.4 26.5L50.4 24.1L52.4 23.9L52.4 26.5L54.2 26.5L54.2 28.1L52.4 28.1L52.4 32.6Q52.4 33.0 52.6 33.2Q52.8 33.4 53.2 33.4L53.2 33.4L54.2 33.4L54.2 35Z M61.3 35L59.3 35L59.3 26.5L61.2 26.5L61.3 28.1L61.4 28.1Q61.8 27.2 62.5 26.8Q63.2 26.3 64.1 26.3L64.1 26.3Q65.0 26.3 65.8 26.8Q66.5 27.2 66.8 28.3L66.8 28.3L67.0 28.3Q67.3 27.3 68.1 26.8Q68.9 26.3 69.9 26.3L69.9 26.3Q70.7 26.3 71.4 26.7Q72.0 27.0 72.4 27.8Q72.8 28.6 72.8 29.9L72.8 29.9L72.8 35L70.8 35L70.8 30.3Q70.8 29.5 70.6 29.0Q70.5 28.5 70.1 28.2Q69.7 28.0 69.1 28.0L69.1 28.0Q68.5 28.0 68.0 28.3Q67.6 28.6 67.3 29.1Q67.1 29.7 67.1 30.3L67.1 30.3L67.1 35L65.1 35L65.1 30.3Q65.1 29.5 64.9 29.0Q64.7 28.5 64.3 28.2Q64.0 28.0 63.4 28.0L63.4 28.0Q62.7 28.0 62.3 28.3Q61.8 28.6 61.6 29.1Q61.3 29.7 61.3 30.3L61.3 30.3L61.3 35ZM78.6 35.1L78.6 35.1Q77.6 35.1 76.8 34.8Q76.1 34.6 75.5 34.0Q74.9 33.4 74.6 32.6Q74.3 31.8 74.3 30.7L74.3 30.7Q74.3 29.4 74.8 28.4Q75.3 27.4 76.3 26.9Q77.2 26.3 78.6 26.3L78.6 26.3Q79.5 26.3 80.3 26.6Q81.0 26.9 81.6 27.5Q82.1 28.1 82.4 28.9Q82.8 29.7 82.8 30.7L82.8 30.7Q82.8 32.0 82.2 33.0Q81.7 34.0 80.8 34.6Q79.9 35.1 78.6 35.1ZM78.5 33.5L78.5 33.5Q79.2 33.5 79.7 33.2Q80.2 32.9 80.5 32.3Q80.7 31.6 80.7 30.7L80.7 30.7Q80.7 30.1 80.6 29.6Q80.4 29.0 80.1 28.7Q79.9 28.3 79.5 28.2Q79.1 28.0 78.6 28.0L78.6 28.0Q77.9 28.0 77.4 28.3Q76.9 28.6 76.6 29.2Q76.4 29.8 76.4 30.7L76.4 30.7Q76.4 31.4 76.5 31.9Q76.7 32.5 76.9 32.8Q77.2 33.1 77.6 33.3Q78.0 33.5 78.5 33.5ZM86.4 35L84.4 35L84.4 26.5L86.4 26.5L86.4 28.1L86.5 28.1Q86.9 27.2 87.6 26.8Q88.3 26.3 89.2 26.3L89.2 26.3Q90.1 26.3 90.9 26.8Q91.6 27.2 92.0 28.3L92.0 28.3L92.1 28.3Q92.4 27.3 93.2 26.8Q94.0 26.3 95.0 26.3L95.0 26.3Q95.8 26.3 96.5 26.7Q97.2 27.0 97.5 27.8Q97.9 28.6 97.9 29.9L97.9 29.9L97.9 35L95.9 35L95.9 30.3Q95.9 29.5 95.7 29.0Q95.6 28.5 95.2 28.2Q94.8 28.0 94.2 28.0L94.2 28.0Q93.6 28.0 93.1 28.3Q92.7 28.6 92.4 29.1Q92.2 29.7 92.2 30.3L92.2 30.3L92.2 35L90.2 35L90.2 30.3Q90.2 29.5 90.0 29.0Q89.8 28.5 89.4 28.2Q89.1 28.0 88.5 28.0L88.5 28.0Q87.8 28.0 87.4 28.3Q86.9 28.6 86.7 29.1Q86.4 29.7 86.4 30.3L86.4 30.3L86.4 35ZM103.5 35.1L103.5 35.1Q102.2 35.1 101.3 34.6Q100.4 34.1 99.9 33.1Q99.4 32.1 99.4 30.8L99.4 30.8Q99.4 29.4 99.9 28.4Q100.4 27.4 101.2 26.9Q102.1 26.3 103.4 26.3L103.4 26.3Q104.8 26.3 105.7 27.0Q106.6 27.6 107.0 28.7Q107.4 29.8 107.3 31.2L107.3 31.2L101.3 31.2Q101.3 32.0 101.6 32.5Q101.9 33.1 102.3 33.4Q102.8 33.6 103.5 33.6L103.5 33.6Q104.2 33.6 104.7 33.3Q105.2 33 105.3 32.5L105.3 32.5L107.2 32.5Q107.1 33.3 106.6 33.9Q106.0 34.5 105.2 34.8Q104.4 35.1 103.5 35.1ZM101.4 29.9L101.4 29.9L105.3 29.9Q105.3 29.2 105.1 28.8L105.1 28.8Q104.9 28.3 104.4 28.1Q104.0 27.8 103.4 27.8L103.4 27.8Q102.8 27.8 102.3 28.1Q101.9 28.4 101.6 28.9L101.6 28.9Q101.4 29.3 101.4 29.9ZM110.9 35L108.9 35L108.9 26.5L110.8 26.5L110.9 28.1L111.0 28.1Q111.4 27.2 112.1 26.8Q112.9 26.3 113.8 26.3L113.8 26.3Q114.4 26.3 115.0 26.5Q115.5 26.7 115.9 27.2Q116.4 27.6 116.6 28.3Q116.8 28.9 116.8 29.9L116.8 29.9L116.8 35L114.8 35L114.8 30.3Q114.8 29.5 114.6 29.0Q114.4 28.5 114.0 28.2Q113.6 28.0 113.0 28.0L113.0 28.0Q112.4 28.0 111.9 28.3Q111.4 28.6 111.2 29.1Q110.9 29.7 110.9 30.3L110.9 30.3L110.9 35ZM123.4 35L121.6 35Q120.6 35 120.1 34.5Q119.6 34.0 119.6 33.0L119.6 33.0L119.6 28.1L118.0 28.1L118.0 26.5L119.6 26.5L119.6 24.1L121.6 23.9L121.6 26.5L123.4 26.5L123.4 28.1L121.6 28.1L121.6 32.6Q121.6 33.0 121.8 33.2Q122.0 33.4 122.4 33.4L122.4 33.4L123.4 33.4L123.4 35ZM128.0 35.1L128.0 35.1Q127.0 35.1 126.3 34.8Q125.6 34.4 125.3 33.6Q124.9 32.9 124.9 31.8L124.9 31.8L124.9 26.5L126.9 26.5L126.9 31.2Q126.9 32.0 127.1 32.5Q127.3 33.0 127.7 33.2Q128.1 33.5 128.7 33.5L128.7 33.5Q129.4 33.5 129.8 33.2Q130.3 32.9 130.6 32.3Q130.8 31.8 130.8 31.1L130.8 31.1L130.8 26.5L132.8 26.5L132.8 35L130.9 35L130.8 33.4L130.7 33.4Q130.4 34.2 129.7 34.7Q128.9 35.1 128.0 35.1ZM137.0 35L135.0 35L135.0 26.5L136.9 26.5L137.0 28.1L137.1 28.1Q137.4 27.2 138.1 26.8Q138.9 26.3 139.8 26.3L139.8 26.3Q140.7 26.3 141.4 26.8Q142.2 27.2 142.5 28.3L142.5 28.3L142.6 28.3Q143.0 27.3 143.7 26.8Q144.5 26.3 145.5 26.3L145.5 26.3Q146.4 26.3 147.0 26.7Q147.7 27.0 148.1 27.8Q148.5 28.6 148.5 29.9L148.5 29.9L148.5 35L146.5 35L146.5 30.3Q146.5 29.5 146.3 29.0Q146.1 28.5 145.7 28.2Q145.3 28.0 144.8 28.0L144.8 28.0Q144.1 28.0 143.7 28.3Q143.2 28.6 143.0 29.1Q142.7 29.7 142.7 30.3L142.7 30.3L142.7 35L140.7 35L140.7 30.3Q140.7 29.5 140.5 29.0Q140.4 28.5 140.0 28.2Q139.6 28.0 139.0 28.0L139.0 28.0Q138.4 28.0 137.9 28.3Q137.5 28.6 137.2 29.1Q137.0 29.7 137.0 30.3L137.0 30.3L137.0 35Z "/></g><mask id="satori_om-id-0-1"><rect x="727" y="20" width="73" height="18" fill="#fff"/></mask><g  ><path fill="#59636e" d="M729.0 34L728.0 34L728.0 25.3L731.4 25.3Q732.3 25.3 733.0 25.6Q733.7 25.9 734.1 26.5Q734.5 27.1 734.5 28.0L734.5 28.0Q734.5 28.8 734.1 29.4Q733.7 30.1 733.0 30.4Q732.3 30.7 731.4 30.7L731.4 30.7L729.0 30.7L729.0 34ZM729.0 26.2L729.0 29.9L731.3 29.9Q732.3 29.9 732.9 29.4Q733.4 28.9 733.4 28.0L733.4 28.0Q733.4 27.1 732.8 26.6Q732.3 26.2 731.3 26.2L731.3 26.2L729.0 26.2ZM738.1 34.1L738.1 34.1Q737.5 34.1 737.0 33.9Q736.5 33.7 736.2 33.2Q735.8 32.8 735.7 32.2Q735.5 31.6 735.5 30.8L735.5 30.8Q735.5 29.8 735.8 29.1Q736.1 28.4 736.7 28.0Q737.3 27.6 738.1 27.6L738.1 27.6Q738.6 27.6 739.1 27.8Q739.5 27.9 739.8 28.3Q740.2 28.6 740.3 29.0L740.3 29.0L740.4 29.0L740.4 27.7L741.3 27.7L741.3 34L740.4 34L740.4 32.7L740.3 32.7Q740.1 33.3 739.5 33.7Q738.9 34.1 738.1 34.1ZM738.4 33.3L738.4 33.3Q739.0 33.3 739.5 33.0Q739.9 32.7 740.1 32.2Q740.3 31.8 740.3 31.2L740.3 31.2L740.3 30.5Q740.3 29.9 740.1 29.4Q739.9 29.0 739.5 28.7Q739.0 28.4 738.4 28.4L738.4 28.4Q737.8 28.4 737.4 28.7Q736.9 29.0 736.7 29.5Q736.5 30.1 736.5 30.8L736.5 30.8Q736.5 31.6 736.7 32.2Q736.9 32.7 737.4 33.0Q737.8 33.3 738.4 33.3ZM745.3 34.1L745.3 34.1Q744.7 34.1 744.2 34.0Q743.8 33.8 743.4 33.6Q743.1 33.3 742.9 33.0Q742.7 32.6 742.7 32.1L742.7 32.1L743.7 32.1Q743.7 32.6 743.9 32.8Q744.1 33.1 744.5 33.3Q744.9 33.4 745.3 33.4L745.3 33.4Q746.0 33.4 746.4 33.1Q746.8 32.8 746.8 32.3L746.8 32.3Q746.8 31.9 746.7 31.7Q746.5 31.5 746.1 31.4Q745.8 31.3 745.2 31.2L745.2 31.2Q744.4 31.1 743.9 30.9Q743.4 30.7 743.2 30.4Q742.9 30.0 742.9 29.4L742.9 29.4Q742.9 28.9 743.2 28.5Q743.5 28.0 744.0 27.8Q744.6 27.6 745.3 27.6L745.3 27.6Q746.0 27.6 746.5 27.8Q747.1 28.0 747.4 28.5Q747.7 28.9 747.7 29.5L747.7 29.5L746.7 29.5Q746.7 29.1 746.5 28.8Q746.3 28.6 746.0 28.4Q745.7 28.3 745.3 28.3L745.3 28.3Q744.6 28.3 744.2 28.6Q743.9 28.9 743.9 29.3L743.9 29.3Q743.9 29.7 744.0 29.9Q744.2 30.1 744.6 30.2Q745.0 30.3 745.6 30.4L745.6 30.4Q746.3 30.5 746.8 30.7Q747.3 30.9 747.5 31.3Q747.8 31.6 747.8 32.2L747.8 32.2Q747.8 32.8 747.5 33.3Q747.2 33.7 746.6 33.9Q746.0 34.1 745.3 34.1ZM752.3 34L751.2 34Q750.5 34 750.2 33.7Q749.8 33.4 749.8 32.6L749.8 32.6L749.8 28.5L748.6 28.5L748.6 27.7L749.8 27.7L749.8 25.8L750.8 25.7L750.8 27.7L752.2 27.7L752.2 28.5L750.8 28.5L750.8 32.5Q750.8 32.8 751.0 33.0Q751.1 33.2 751.4 33.2L751.4 33.2L752.3 33.2L752.3 34Z M759.0 25.2L759.0 25.2Q759.7 25.2 760.3 25.5Q760.9 25.7 761.3 26.2Q761.7 26.8 761.9 27.5Q762.1 28.2 762.1 29.2L762.1 29.2Q762.1 30.5 761.8 31.4Q761.6 32.3 761.2 32.9Q760.8 33.5 760.2 33.8Q759.6 34.1 758.8 34.1L758.8 34.1Q758.2 34.1 757.8 33.9Q757.3 33.8 756.9 33.5Q756.5 33.2 756.3 32.8Q756.1 32.4 756.0 31.9L756.0 31.9L757 31.9Q757.1 32.2 757.2 32.5Q757.4 32.8 757.6 32.9Q757.9 33.1 758.2 33.2Q758.5 33.3 758.8 33.3L758.8 33.3Q759.5 33.3 760.0 33.0Q760.4 32.7 760.6 32.2Q760.9 31.7 761.0 30.9Q761.1 30.2 761.1 29.3L761.1 29.3L761.1 29.3Q760.9 29.8 760.6 30.1Q760.3 30.4 759.8 30.6Q759.3 30.8 758.7 30.8L758.7 30.8Q757.9 30.8 757.3 30.5Q756.7 30.1 756.3 29.5Q756.0 28.9 756.0 28.1L756.0 28.1Q756.0 27.2 756.4 26.6Q756.7 25.9 757.4 25.6Q758.1 25.2 759.0 25.2ZM758.9 26.1L758.9 26.1Q758.4 26.1 757.9 26.3Q757.5 26.6 757.2 27.0Q757.0 27.5 757.0 28.1L757.0 28.1Q757.0 28.7 757.2 29.1Q757.5 29.6 757.9 29.8Q758.3 30.0 758.9 30.0L758.9 30.0Q759.5 30.0 760.0 29.8Q760.4 29.5 760.7 29.0Q760.9 28.6 760.9 28.0L760.9 28.0Q760.9 27.4 760.7 27.0Q760.4 26.6 760.0 26.3Q759.5 26.1 758.9 26.1ZM766.6 34.1L766.6 34.1Q765.9 34.1 765.4 33.8Q764.8 33.5 764.4 33.0Q764.0 32.4 763.8 31.6Q763.6 30.8 763.6 29.7L763.6 29.7Q763.6 28.2 764.0 27.2Q764.4 26.2 765.1 25.7Q765.7 25.3 766.6 25.3L766.6 25.3Q767.4 25.3 767.9 25.5Q768.5 25.8 768.9 26.4Q769.3 26.9 769.5 27.8Q769.7 28.6 769.7 29.7L769.7 29.7Q769.7 31.2 769.3 32.2Q768.9 33.1 768.3 33.6Q767.6 34.1 766.6 34.1ZM766.6 33.3L766.6 33.3Q767.2 33.3 767.6 33.0Q768.0 32.8 768.2 32.4Q768.4 31.9 768.6 31.2Q768.7 30.6 768.7 29.7L768.7 29.7Q768.7 28.8 768.6 28.1Q768.4 27.5 768.2 27.0Q768.0 26.5 767.6 26.3Q767.2 26.1 766.6 26.1L766.6 26.1Q766.1 26.1 765.7 26.3Q765.3 26.5 765.1 27.0Q764.8 27.5 764.7 28.1Q764.6 28.8 764.6 29.7L764.6 29.7Q764.6 30.6 764.7 31.2Q764.8 31.9 765.1 32.4Q765.3 32.8 765.7 33.0Q766.1 33.3 766.6 33.3Z M776.0 34.1L776.0 34.1Q775.4 34.1 774.9 33.9Q774.4 33.7 774.1 33.2Q773.8 32.8 773.6 32.2Q773.4 31.6 773.4 30.8L773.4 30.8Q773.4 29.8 773.7 29.1Q774.0 28.4 774.6 28.0Q775.2 27.6 776.0 27.6L776.0 27.6Q776.5 27.6 777.0 27.8Q777.4 27.9 777.7 28.3Q778.1 28.6 778.2 29.0L778.2 29.0L778.3 29.0L778.3 25.3L779.2 25.3L779.2 34L778.3 34L778.3 32.7L778.2 32.7Q778.0 33.3 777.4 33.7Q776.8 34.1 776.0 34.1ZM776.3 33.3L776.3 33.3Q776.9 33.3 777.4 33.0Q777.8 32.7 778.0 32.2Q778.3 31.8 778.3 31.2L778.3 31.2L778.3 30.5Q778.3 29.9 778.0 29.4Q777.8 29.0 777.4 28.7Q776.9 28.4 776.3 28.4L776.3 28.4Q775.7 28.4 775.3 28.7Q774.8 29.0 774.6 29.5Q774.4 30.1 774.4 30.8L774.4 30.8Q774.4 31.6 774.6 32.2Q774.8 32.7 775.3 33.0Q775.7 33.3 776.3 33.3ZM783.3 34.1L783.3 34.1Q782.7 34.1 782.3 33.9Q781.8 33.7 781.4 33.2Q781.1 32.8 780.9 32.2Q780.7 31.6 780.7 30.8L780.7 30.8Q780.7 29.8 781.0 29.1Q781.4 28.4 781.9 28.0Q782.5 27.6 783.3 27.6L783.3 27.6Q783.9 27.6 784.3 27.8Q784.8 27.9 785.1 28.3Q785.4 28.6 785.5 29.0L785.5 29.0L785.6 29.0L785.6 27.7L786.5 27.7L786.5 34L785.6 34L785.6 32.7L785.5 32.7Q785.3 33.3 784.7 33.7Q784.1 34.1 783.3 34.1ZM783.6 33.3L783.6 33.3Q784.3 33.3 784.7 33.0Q785.1 32.7 785.3 32.2Q785.6 31.8 785.6 31.2L785.6 31.2L785.6 30.5Q785.6 29.9 785.3 29.4Q785.1 29.0 784.7 28.7Q784.3 28.4 783.6 28.4L783.6 28.4Q783.0 28.4 782.6 28.7Q782.2 29.0 781.9 29.5Q781.7 30.1 781.7 30.8L781.7 30.8Q781.7 31.6 781.9 32.2Q782.2 32.7 782.6 33.0Q783.0 33.3 783.6 33.3ZM788.9 36.0L788.1 36.0L788.1 35.2L788.8 35.2Q789.1 35.2 789.3 35.1Q789.5 35.0 789.6 34.9Q789.8 34.7 789.9 34.4L789.9 34.4L790.2 33.6L787.7 27.7L788.8 27.7L790.1 31.1L790.6 32.6L790.7 32.6L791.2 31.1L792.4 27.7L793.5 27.7L790.8 34.7Q790.6 35.2 790.3 35.4Q790.1 35.7 789.7 35.9Q789.4 36.0 788.9 36.0L788.9 36.0ZM796.8 34.1L796.8 34.1Q796.2 34.1 795.7 34.0Q795.3 33.8 794.9 33.6Q794.6 33.3 794.4 33.0Q794.2 32.6 794.2 32.1L794.2 32.1L795.2 32.1Q795.2 32.6 795.4 32.8Q795.6 33.1 796.0 33.3Q796.4 33.4 796.8 33.4L796.8 33.4Q797.5 33.4 797.9 33.1Q798.3 32.8 798.3 32.3L798.3 32.3Q798.3 31.9 798.2 31.7Q798.0 31.5 797.6 31.4Q797.3 31.3 796.7 31.2L796.7 31.2Q796.0 31.1 795.4 30.9Q794.9 30.7 794.7 30.4Q794.4 30.0 794.4 29.4L794.4 29.4Q794.4 28.9 794.7 28.5Q795.0 28.0 795.5 27.8Q796.1 27.6 796.8 27.6L796.8 27.6Q797.5 27.6 798.1 27.8Q798.6 28.0 798.9 28.5Q799.2 28.9 799.2 29.5L799.2 29.5L798.2 29.5Q798.2 29.1 798.0 28.8Q797.8 28.6 797.5 28.4Q797.2 28.3 796.8 28.3L796.8 28.3Q796.1 28.3 795.7 28.6Q795.4 28.9 795.4 29.3L795.4 29.3Q795.4 29.7 795.5 29.9Q795.7 30.1 796.1 30.2Q796.5 30.3 797.1 30.4L797.1 30.4Q797.8 30.5 798.3 30.7Q798.8 30.9 799.0 31.3Q799.3 31.6 799.3 32.2L799.3 32.2Q799.3 32.8 799.0 33.3Q798.7 33.7 798.1 33.9Q797.5 34.1 796.8 34.1Z "/></g><mask id="satori_om-id-1"><rect x="0" y="49" width="800" height="21" fill="#fff"/></mask><g  ><path fill="#59636e" d="M3.9 65.1L3.9 65.1Q2.9 65.1 2.1 64.8Q1.4 64.4 1.0 63.7Q0.6 63.1 0.5 62.2L0.5 62.2L1.7 62.2Q1.7 62.8 2.0 63.2Q2.2 63.7 2.7 63.9Q3.2 64.1 3.9 64.1L3.9 64.1Q4.9 64.1 5.5 63.6Q6.1 63.1 6.1 62.1L6.1 62.1Q6.1 61.5 5.9 61.1Q5.6 60.6 5.2 60.4Q4.7 60.2 4.1 60.2L4.1 60.2L3.1 60.2L3.1 59.3L3.9 59.3Q4.6 59.3 5.1 59.1Q5.6 58.9 5.8 58.5Q6.1 58.1 6.1 57.5L6.1 57.5Q6.1 57.0 5.8 56.6Q5.6 56.2 5.1 56.0Q4.6 55.7 4.0 55.7L4.0 55.7Q3.4 55.7 2.9 56.0Q2.4 56.2 2.2 56.6Q1.9 57.1 1.8 57.6L1.8 57.6L0.7 57.6Q0.8 56.8 1.2 56.1Q1.6 55.5 2.3 55.1Q3.1 54.8 4.0 54.8L4.0 54.8Q5.0 54.8 5.7 55.1Q6.4 55.4 6.8 56.0Q7.2 56.6 7.2 57.4L7.2 57.4Q7.2 58.0 7 58.4Q6.8 58.9 6.4 59.2Q6.0 59.6 5.5 59.7L5.5 59.7L5.5 59.8Q6.1 59.9 6.5 60.2Q6.9 60.6 7.1 61.1Q7.3 61.6 7.3 62.2L7.3 62.2Q7.3 63.1 6.9 63.8Q6.4 64.4 5.7 64.8Q4.9 65.1 3.9 65.1ZM12.1 65L10.9 65L10.9 57.4L8.6 57.4L8.6 56.6L8.9 56.6Q10.0 56.6 10.4 56.1Q10.9 55.6 11.0 54.9L11.0 54.9L12.1 54.9L12.1 65ZM20.3 65L13.9 65L13.9 64.7Q13.9 63.9 14.2 63.3Q14.5 62.7 14.9 62.2Q15.4 61.7 16.0 61.2Q16.5 60.8 17.1 60.4Q17.7 60.0 18.1 59.6Q18.6 59.2 18.9 58.7Q19.2 58.2 19.2 57.7L19.2 57.7Q19.2 57.1 18.9 56.6Q18.7 56.2 18.2 56.0Q17.8 55.8 17.1 55.8L17.1 55.8Q16.5 55.8 16.0 56.0Q15.5 56.3 15.2 56.8Q15.0 57.3 15.0 57.9L15.0 57.9L13.8 57.9Q13.8 57.0 14.3 56.3Q14.7 55.6 15.4 55.2Q16.2 54.8 17.2 54.8L17.2 54.8Q18.1 54.8 18.8 55.1Q19.5 55.5 19.9 56.1Q20.3 56.8 20.3 57.6L20.3 57.6Q20.3 58.3 20.0 58.8Q19.8 59.4 19.3 59.8Q18.9 60.3 18.4 60.7Q17.9 61.1 17.3 61.4Q16.8 61.8 16.3 62.2Q15.8 62.6 15.5 63.0Q15.2 63.5 15.1 64.0L15.1 64.0L20.3 64.0L20.3 65Z M28.2 65.1L28.2 65.1Q27.4 65.1 26.7 64.9Q26.1 64.6 25.6 64.1Q25.1 63.6 24.9 62.9Q24.6 62.2 24.6 61.3L24.6 61.3Q24.6 60.5 24.9 59.8Q25.1 59.1 25.6 58.6Q26.1 58.1 26.8 57.8Q27.4 57.5 28.2 57.5L28.2 57.5Q29.1 57.5 29.7 57.8Q30.4 58.2 30.8 58.7Q31.2 59.3 31.3 60.0L31.3 60.0L30.2 60.0Q30.1 59.5 29.8 59.2Q29.5 58.8 29.1 58.7Q28.7 58.5 28.2 58.5L28.2 58.5Q27.6 58.5 27.2 58.7Q26.7 58.9 26.4 59.3Q26.1 59.7 25.9 60.2Q25.8 60.7 25.8 61.3L25.8 61.3Q25.8 62.2 26.1 62.9Q26.4 63.5 26.9 63.8Q27.5 64.2 28.2 64.2L28.2 64.2Q28.7 64.2 29.2 64.0Q29.6 63.7 29.9 63.4Q30.2 63.0 30.3 62.5L30.3 62.5L31.4 62.5Q31.3 63.3 30.9 63.9Q30.4 64.5 29.7 64.8Q29.0 65.1 28.2 65.1ZM36.1 65.1L36.1 65.1Q35.3 65.1 34.6 64.9Q34.0 64.6 33.5 64.1Q33.0 63.6 32.8 62.9Q32.5 62.2 32.5 61.3L32.5 61.3Q32.5 60.2 32.9 59.4Q33.4 58.5 34.2 58.0Q35.0 57.5 36.1 57.5L36.1 57.5Q36.9 57.5 37.5 57.8Q38.2 58.1 38.6 58.6Q39.1 59.1 39.3 59.8Q39.6 60.5 39.6 61.3L39.6 61.3Q39.6 62.5 39.2 63.3Q38.7 64.2 37.9 64.6Q37.1 65.1 36.1 65.1ZM36.1 64.1L36.1 64.1Q36.8 64.1 37.3 63.8Q37.8 63.5 38.1 62.9Q38.4 62.2 38.4 61.3L38.4 61.3Q38.4 60.7 38.3 60.1Q38.1 59.6 37.8 59.3Q37.5 58.9 37.1 58.7Q36.6 58.5 36.1 58.5L36.1 58.5Q35.4 58.5 34.8 58.8Q34.3 59.2 34.0 59.8Q33.7 60.4 33.7 61.3L33.7 61.3Q33.7 62.0 33.8 62.5Q34.0 63.0 34.3 63.4Q34.6 63.8 35.1 64.0Q35.5 64.1 36.1 64.1ZM42.4 65L41.3 65L41.3 57.6L42.4 57.6L42.4 59.2L42.5 59.2Q42.8 58.4 43.5 58.0Q44.2 57.5 45.0 57.5L45.0 57.5Q45.6 57.5 46.1 57.7Q46.6 57.9 46.9 58.3Q47.3 58.6 47.5 59.2Q47.7 59.8 47.7 60.7L47.7 60.7L47.7 65L46.6 65L46.6 60.9Q46.6 60.1 46.3 59.5Q46.1 59.0 45.7 58.7Q45.3 58.5 44.7 58.5L44.7 58.5Q44.0 58.5 43.5 58.8Q43.0 59.2 42.7 59.7Q42.4 60.3 42.4 61.0L42.4 61.0L42.4 65ZM53.2 65L51.9 65Q51.1 65 50.7 64.6Q50.3 64.3 50.3 63.4L50.3 63.4L50.3 58.6L48.9 58.6L48.9 57.6L50.3 57.6L50.3 55.5L51.5 55.3L51.5 57.6L53.2 57.6L53.2 58.6L51.5 58.6L51.5 63.2Q51.5 63.7 51.7 63.8Q51.9 64.0 52.2 64.0L52.2 64.0L53.2 64.0L53.2 65ZM55.8 65L54.7 65L54.7 57.6L55.7 57.6L55.8 59.0L55.8 59.0Q56.1 58.3 56.7 57.9Q57.3 57.6 58.0 57.6L58.0 57.6Q58.1 57.6 58.3 57.6Q58.4 57.6 58.5 57.6L58.5 57.6L58.5 58.7Q58.4 58.6 58.3 58.6Q58.1 58.6 58.0 58.6L58.0 58.6Q57.4 58.6 56.9 58.9Q56.4 59.1 56.1 59.5Q55.9 60.0 55.8 60.6L55.8 60.6L55.8 65ZM61.0 65L59.8 65L59.8 57.6L61.0 57.6L61.0 65ZM60.4 56.4L60.4 56.4Q60.1 56.4 59.9 56.2Q59.7 56.0 59.7 55.7L59.7 55.7Q59.7 55.5 59.9 55.3Q60.1 55.1 60.4 55.1L60.4 55.1Q60.7 55.1 60.9 55.3Q61.1 55.5 61.1 55.7L61.1 55.7Q61.1 56.0 60.9 56.2Q60.7 56.4 60.4 56.4ZM66.9 65.1L66.9 65.1Q66.2 65.1 65.7 64.9Q65.2 64.7 64.8 64.3Q64.5 64.0 64.3 63.5L64.3 63.5L64.2 63.5L64.1 65L63.1 65L63.1 54.8L64.2 54.8L64.2 59.2L64.3 59.2Q64.5 58.4 65.2 58.0Q65.9 57.5 66.9 57.5L66.9 57.5Q67.5 57.5 68.1 57.8Q68.6 58.1 69.0 58.5Q69.5 59.0 69.7 59.7Q69.9 60.5 69.9 61.3L69.9 61.3Q69.9 62.5 69.5 63.4Q69.1 64.2 68.4 64.7Q67.8 65.1 66.9 65.1ZM66.5 64.2L66.5 64.2Q67.2 64.2 67.7 63.9Q68.2 63.5 68.5 62.9Q68.7 62.2 68.7 61.3L68.7 61.3Q68.7 60.7 68.6 60.1Q68.4 59.6 68.1 59.2Q67.8 58.9 67.4 58.7Q67.0 58.5 66.5 58.5L66.5 58.5Q65.8 58.5 65.3 58.8Q64.8 59.1 64.5 59.7Q64.2 60.3 64.2 60.9L64.2 60.9L64.2 61.8Q64.2 62.4 64.5 63.0Q64.8 63.5 65.3 63.9Q65.8 64.2 66.5 64.2ZM74.2 65.1L74.2 65.1Q73.3 65.1 72.7 64.8Q72.1 64.5 71.8 63.8Q71.5 63.1 71.5 62.2L71.5 62.2L71.5 57.6L72.6 57.6L72.6 61.9Q72.6 62.6 72.8 63.1Q73.0 63.6 73.5 63.9Q73.9 64.2 74.5 64.2L74.5 64.2Q75.2 64.2 75.7 63.8Q76.2 63.5 76.5 62.9Q76.8 62.3 76.8 61.6L76.8 61.6L76.8 57.6L77.9 57.6L77.9 65L76.8 65L76.8 63.4L76.7 63.4Q76.4 64.2 75.7 64.7Q75.0 65.1 74.2 65.1ZM83.6 65L82.3 65Q81.5 65 81.1 64.6Q80.7 64.3 80.7 63.4L80.7 63.4L80.7 58.6L79.3 58.6L79.3 57.6L80.7 57.6L80.7 55.5L81.8 55.3L81.8 57.6L83.5 57.6L83.5 58.6L81.8 58.6L81.8 63.2Q81.8 63.7 82.0 63.8Q82.2 64.0 82.6 64.0L82.6 64.0L83.6 64.0L83.6 65ZM86.2 65L85.1 65L85.1 57.6L86.2 57.6L86.2 65ZM85.7 56.4L85.7 56.4Q85.3 56.4 85.1 56.2Q84.9 56.0 84.9 55.7L84.9 55.7Q84.9 55.5 85.1 55.3Q85.3 55.1 85.7 55.1L85.7 55.1Q86.0 55.1 86.2 55.3Q86.4 55.5 86.4 55.7L86.4 55.7Q86.4 56.0 86.2 56.2Q86.0 56.4 85.7 56.4ZM91.4 65.1L91.4 65.1Q90.6 65.1 90.0 64.9Q89.3 64.6 88.9 64.1Q88.4 63.6 88.1 62.9Q87.9 62.2 87.9 61.3L87.9 61.3Q87.9 60.2 88.3 59.4Q88.7 58.5 89.6 58.0Q90.4 57.5 91.4 57.5L91.4 57.5Q92.2 57.5 92.9 57.8Q93.5 58.1 94.0 58.6Q94.5 59.1 94.7 59.8Q95.0 60.5 95.0 61.3L95.0 61.3Q95.0 62.5 94.5 63.3Q94.1 64.2 93.3 64.6Q92.5 65.1 91.4 65.1ZM91.4 64.1L91.4 64.1Q92.1 64.1 92.7 63.8Q93.2 63.5 93.5 62.9Q93.8 62.2 93.8 61.3L93.8 61.3Q93.8 60.7 93.6 60.1Q93.5 59.6 93.2 59.3Q92.9 58.9 92.4 58.7Q92.0 58.5 91.4 58.5L91.4 58.5Q90.7 58.5 90.2 58.8Q89.6 59.2 89.3 59.8Q89.0 60.4 89.0 61.3L89.0 61.3Q89.0 62.0 89.2 62.5Q89.4 63.0 89.7 63.4Q90.0 63.8 90.4 64.0Q90.9 64.1 91.4 64.1ZM97.8 65L96.6 65L96.6 57.6L97.7 57.6L97.8 59.2L97.8 59.2Q98.2 58.4 98.9 58.0Q99.6 57.5 100.4 57.5L100.4 57.5Q101.0 57.5 101.5 57.7Q101.9 57.9 102.3 58.3Q102.7 58.6 102.9 59.2Q103.1 59.8 103.1 60.7L103.1 60.7L103.1 65L101.9 65L101.9 60.9Q101.9 60.1 101.7 59.5Q101.5 59.0 101.1 58.7Q100.7 58.5 100.0 58.5L100.0 58.5Q99.4 58.5 98.8 58.8Q98.3 59.2 98.0 59.7Q97.8 60.3 97.8 61.0L97.8 61.0L97.8 65ZM107.5 65.1L107.5 65.1Q106.9 65.1 106.3 65.0Q105.8 64.8 105.4 64.5Q105.0 64.2 104.8 63.8Q104.6 63.3 104.6 62.8L104.6 62.8L105.7 62.8Q105.7 63.3 105.9 63.6Q106.2 64.0 106.6 64.1Q107.0 64.3 107.6 64.3L107.6 64.3Q108.4 64.3 108.9 64.0Q109.3 63.6 109.3 63.1L109.3 63.1Q109.3 62.6 109.1 62.4Q108.9 62.1 108.5 62.0Q108.1 61.8 107.5 61.7L107.5 61.7Q106.6 61.6 106.0 61.4Q105.4 61.2 105.1 60.8Q104.7 60.3 104.7 59.7L104.7 59.7Q104.7 59.0 105.1 58.5Q105.4 58.1 106.1 57.8Q106.7 57.5 107.5 57.5L107.5 57.5Q108.4 57.5 109.0 57.8Q109.6 58.1 110.0 58.6Q110.3 59.0 110.3 59.7L110.3 59.7L109.2 59.7Q109.2 59.2 109.0 58.9Q108.8 58.6 108.4 58.5Q108.0 58.4 107.5 58.4L107.5 58.4Q106.8 58.4 106.3 58.7Q105.9 59.0 105.9 59.6L105.9 59.6Q105.9 60.0 106.1 60.2Q106.3 60.5 106.7 60.6Q107.2 60.7 107.9 60.8L107.9 60.8Q108.7 60.9 109.3 61.1Q109.9 61.4 110.2 61.8Q110.5 62.2 110.5 63.0L110.5 63.0Q110.5 63.7 110.1 64.1Q109.8 64.6 109.1 64.9Q108.4 65.1 107.5 65.1Z M115.8 62.0L115.8 62.0Q115.4 62.0 115.2 61.7Q114.9 61.5 114.9 61.1L114.9 61.1Q114.9 60.9 115.0 60.7Q115.1 60.5 115.3 60.4Q115.5 60.3 115.8 60.3L115.8 60.3Q116.1 60.3 116.4 60.5Q116.6 60.8 116.6 61.1L116.6 61.1Q116.6 61.4 116.5 61.5Q116.4 61.7 116.2 61.9Q116.0 62.0 115.8 62.0Z M124.3 65.1L124.3 65.1Q123.3 65.1 122.5 64.8Q121.8 64.4 121.4 63.7Q121.0 63.1 120.9 62.2L120.9 62.2L122.1 62.2Q122.1 62.8 122.4 63.2Q122.6 63.7 123.1 63.9Q123.6 64.1 124.3 64.1L124.3 64.1Q125.3 64.1 125.9 63.6Q126.5 63.1 126.5 62.1L126.5 62.1Q126.5 61.5 126.3 61.1Q126.0 60.6 125.6 60.4Q125.1 60.2 124.5 60.2L124.5 60.2L123.5 60.2L123.5 59.3L124.3 59.3Q125.0 59.3 125.5 59.1Q126.0 58.9 126.2 58.5Q126.5 58.1 126.5 57.5L126.5 57.5Q126.5 57.0 126.2 56.6Q126.0 56.2 125.5 56.0Q125.0 55.7 124.4 55.7L124.4 55.7Q123.8 55.7 123.3 56.0Q122.8 56.2 122.6 56.6Q122.3 57.1 122.2 57.6L122.2 57.6L121.1 57.6Q121.2 56.8 121.6 56.1Q122.0 55.5 122.7 55.1Q123.5 54.8 124.4 54.8L124.4 54.8Q125.4 54.8 126.1 55.1Q126.8 55.4 127.2 56.0Q127.6 56.6 127.6 57.4L127.6 57.4Q127.6 58.0 127.4 58.4Q127.2 58.9 126.8 59.2Q126.4 59.6 125.9 59.7L125.9 59.7L125.9 59.8Q126.5 59.9 126.9 60.2Q127.3 60.6 127.5 61.1Q127.7 61.6 127.7 62.2L127.7 62.2Q127.7 63.1 127.3 63.8Q126.8 64.4 126.1 64.8Q125.3 65.1 124.3 65.1ZM132.9 65.1L132.9 65.1Q132.1 65.1 131.4 64.8Q130.8 64.5 130.3 63.8Q129.8 63.2 129.6 62.2Q129.3 61.2 129.3 60.0L129.3 60.0Q129.3 58.2 129.8 57.1Q130.2 55.9 131.0 55.4Q131.8 54.8 132.9 54.8L132.9 54.8Q133.7 54.8 134.4 55.1Q135.0 55.5 135.5 56.1Q136.0 56.8 136.2 57.7Q136.5 58.7 136.5 60.0L136.5 60.0Q136.5 61.7 136.0 62.9Q135.6 64.0 134.8 64.6Q134.0 65.1 132.9 65.1ZM132.9 64.2L132.9 64.2Q133.5 64.2 134.0 63.9Q134.4 63.6 134.7 63.1Q135.0 62.6 135.1 61.8Q135.3 61.0 135.3 60.0L135.3 60.0Q135.3 58.9 135.1 58.2Q135.0 57.4 134.7 56.8Q134.4 56.3 134.0 56.0Q133.5 55.8 132.9 55.8L132.9 55.8Q132.3 55.8 131.8 56.0Q131.4 56.3 131.1 56.8Q130.8 57.4 130.7 58.2Q130.5 58.9 130.5 60.0L130.5 60.0Q130.5 61.0 130.7 61.8Q130.8 62.6 131.1 63.1Q131.4 63.6 131.8 63.9Q132.3 64.2 132.9 64.2ZM137.9 66.1L136.8 66.1L141.2 54.8L142.3 54.8L137.9 66.1ZM146.2 65.1L146.2 65.1Q145.2 65.1 144.5 64.8Q143.7 64.4 143.3 63.7Q142.9 63.1 142.9 62.2L142.9 62.2L144.0 62.2Q144.0 62.8 144.3 63.2Q144.6 63.7 145.1 63.9Q145.6 64.1 146.2 64.1L146.2 64.1Q147.2 64.1 147.9 63.6Q148.5 63.1 148.5 62.1L148.5 62.1Q148.5 61.5 148.2 61.1Q148.0 60.6 147.5 60.4Q147.0 60.2 146.4 60.2L146.4 60.2L145.4 60.2L145.4 59.3L146.2 59.3Q146.9 59.3 147.4 59.1Q147.9 58.9 148.2 58.5Q148.4 58.1 148.4 57.5L148.4 57.5Q148.4 57.0 148.2 56.6Q147.9 56.2 147.4 56.0Q147.0 55.7 146.4 55.7L146.4 55.7Q145.7 55.7 145.3 56.0Q144.8 56.2 144.5 56.6Q144.2 57.1 144.2 57.6L144.2 57.6L143.1 57.6Q143.1 56.8 143.5 56.1Q143.9 55.5 144.7 55.1Q145.4 54.8 146.4 54.8L146.4 54.8Q147.3 54.8 148.1 55.1Q148.8 55.4 149.2 56.0Q149.6 56.6 149.6 57.4L149.6 57.4Q149.6 58.0 149.3 58.4Q149.1 58.9 148.7 59.2Q148.3 59.6 147.8 59.7L147.8 59.7L147.8 59.8Q148.4 59.9 148.8 60.2Q149.2 60.6 149.4 61.1Q149.6 61.6 149.6 62.2L149.6 62.2Q149.6 63.1 149.2 63.8Q148.8 64.4 148.0 64.8Q147.2 65.1 146.2 65.1ZM154.8 65.1L154.8 65.1Q154.0 65.1 153.4 64.8Q152.7 64.5 152.2 63.8Q151.8 63.2 151.5 62.2Q151.3 61.2 151.3 60.0L151.3 60.0Q151.3 58.2 151.7 57.1Q152.2 55.9 153.0 55.4Q153.8 54.8 154.8 54.8L154.8 54.8Q155.7 54.8 156.3 55.1Q157.0 55.5 157.4 56.1Q157.9 56.8 158.2 57.7Q158.4 58.7 158.4 60.0L158.4 60.0Q158.4 61.7 158.0 62.9Q157.5 64.0 156.7 64.6Q155.9 65.1 154.8 65.1ZM154.8 64.2L154.8 64.2Q155.5 64.2 155.9 63.9Q156.4 63.6 156.7 63.1Q156.9 62.6 157.1 61.8Q157.2 61.0 157.2 60.0L157.2 60.0Q157.2 58.9 157.1 58.2Q156.9 57.4 156.7 56.8Q156.4 56.3 155.9 56.0Q155.5 55.8 154.8 55.8L154.8 55.8Q154.2 55.8 153.8 56.0Q153.3 56.3 153.0 56.8Q152.7 57.4 152.6 58.2Q152.5 58.9 152.5 60.0L152.5 60.0Q152.5 61.0 152.6 61.8Q152.7 62.6 153.0 63.1Q153.3 63.6 153.8 63.9Q154.2 64.2 154.8 64.2Z M164.5 65L163.4 65L163.4 57.6L164.4 57.6L164.5 59.0L164.6 59.0Q164.8 58.3 165.4 57.9Q166.0 57.6 166.7 57.6L166.7 57.6Q166.9 57.6 167.0 57.6Q167.1 57.6 167.2 57.6L167.2 57.6L167.2 58.7Q167.1 58.6 167.0 58.6Q166.9 58.6 166.7 58.6L166.7 58.6Q166.1 58.6 165.6 58.9Q165.1 59.1 164.9 59.5Q164.6 60.0 164.5 60.6L164.5 60.6L164.5 65ZM171.4 65.1L171.4 65.1Q170.3 65.1 169.6 64.7Q168.8 64.2 168.4 63.3Q168.0 62.5 168.0 61.4L168.0 61.4Q168.0 60.2 168.4 59.3Q168.8 58.5 169.5 58.0Q170.3 57.5 171.3 57.5L171.3 57.5Q172.4 57.5 173.2 58.0Q173.9 58.5 174.2 59.4Q174.6 60.3 174.5 61.5L174.5 61.5L169.1 61.5Q169.1 62.4 169.4 63.0Q169.7 63.6 170.2 63.9Q170.7 64.2 171.4 64.2L171.4 64.2Q172.1 64.2 172.6 63.9Q173.2 63.5 173.3 62.9L173.3 62.9L174.4 62.9Q174.3 63.6 173.9 64.1Q173.4 64.6 172.8 64.9Q172.1 65.1 171.4 65.1ZM169.2 60.7L169.2 60.7L173.4 60.7Q173.3 60.0 173.1 59.5L173.1 59.5Q172.9 58.9 172.4 58.7Q171.9 58.4 171.3 58.4L171.3 58.4Q170.7 58.4 170.2 58.7Q169.7 59.0 169.5 59.5L169.5 59.5Q169.2 60.0 169.2 60.7ZM179.2 65.1L179.2 65.1Q178.4 65.1 177.7 64.9Q177.1 64.6 176.6 64.1Q176.1 63.6 175.9 62.9Q175.6 62.2 175.6 61.3L175.6 61.3Q175.6 60.5 175.9 59.8Q176.1 59.1 176.6 58.6Q177.1 58.1 177.7 57.8Q178.4 57.5 179.2 57.5L179.2 57.5Q180.1 57.5 180.7 57.8Q181.4 58.2 181.8 58.7Q182.2 59.3 182.3 60.0L182.3 60.0L181.2 60.0Q181.1 59.5 180.8 59.2Q180.5 58.8 180.1 58.7Q179.7 58.5 179.2 58.5L179.2 58.5Q178.6 58.5 178.2 58.7Q177.7 58.9 177.4 59.3Q177.1 59.7 176.9 60.2Q176.8 60.7 176.8 61.3L176.8 61.3Q176.8 62.2 177.1 62.9Q177.4 63.5 177.9 63.8Q178.4 64.2 179.2 64.2L179.2 64.2Q179.7 64.2 180.2 64.0Q180.6 63.7 180.9 63.4Q181.2 63.0 181.3 62.5L181.3 62.5L182.4 62.5Q182.3 63.3 181.8 63.9Q181.4 64.5 180.7 64.8Q180.0 65.1 179.2 65.1ZM186.8 65.1L186.8 65.1Q185.7 65.1 185.0 64.7Q184.2 64.2 183.8 63.3Q183.4 62.5 183.4 61.4L183.4 61.4Q183.4 60.2 183.8 59.3Q184.2 58.5 184.9 58.0Q185.7 57.5 186.7 57.5L186.7 57.5Q187.8 57.5 188.6 58.0Q189.3 58.5 189.6 59.4Q190.0 60.3 189.9 61.5L189.9 61.5L184.5 61.5Q184.5 62.4 184.8 63.0Q185.1 63.6 185.6 63.9Q186.1 64.2 186.8 64.2L186.8 64.2Q187.5 64.2 188.0 63.9Q188.6 63.5 188.7 62.9L188.7 62.9L189.8 62.9Q189.7 63.6 189.3 64.1Q188.8 64.6 188.2 64.9Q187.5 65.1 186.8 65.1ZM184.6 60.7L184.6 60.7L188.8 60.7Q188.7 60.0 188.5 59.5L188.5 59.5Q188.3 58.9 187.8 58.7Q187.3 58.4 186.7 58.4L186.7 58.4Q186.1 58.4 185.6 58.7Q185.1 59.0 184.9 59.5L184.9 59.5Q184.6 60.0 184.6 60.7ZM192.6 65L191.5 65L191.5 57.6L192.6 57.6L192.6 59.2L192.7 59.2Q193.0 58.4 193.7 58.0Q194.4 57.5 195.2 57.5L195.2 57.5Q195.8 57.5 196.3 57.7Q196.8 57.9 197.1 58.3Q197.5 58.6 197.7 59.2Q197.9 59.8 197.9 60.7L197.9 60.7L197.9 65L196.8 65L196.8 60.9Q196.8 60.1 196.6 59.5Q196.4 59.0 195.9 58.7Q195.5 58.5 194.9 58.5L194.9 58.5Q194.2 58.5 193.7 58.8Q193.2 59.2 192.9 59.7Q192.6 60.3 192.6 61.0L192.6 61.0L192.6 65ZM203.4 65L202.1 65Q201.3 65 200.9 64.6Q200.5 64.3 200.5 63.4L200.5 63.4L200.5 58.6L199.1 58.6L199.1 57.6L200.5 57.6L200.5 55.5L201.7 55.3L201.7 57.6L203.4 57.6L203.4 58.6L201.7 58.6L201.7 63.2Q201.7 63.7 201.9 63.8Q202.1 64.0 202.4 64.0L202.4 64.0L203.4 64.0L203.4 65Z M210.8 65.1L210.8 65.1Q210.1 65.1 209.5 64.9Q208.9 64.6 208.5 64.1Q208.1 63.6 207.9 62.9Q207.7 62.2 207.7 61.3L207.7 61.3Q207.7 60.1 208.1 59.3Q208.5 58.4 209.2 58.0Q209.8 57.5 210.8 57.5L210.8 57.5Q211.4 57.5 211.9 57.7Q212.4 57.9 212.8 58.3Q213.2 58.7 213.3 59.2L213.3 59.2L213.4 59.2L213.4 54.8L214.5 54.8L214.5 65L213.4 65L213.4 63.5L213.3 63.5Q213.1 64.2 212.4 64.7Q211.7 65.1 210.8 65.1ZM211.1 64.2L211.1 64.2Q211.8 64.2 212.4 63.8Q212.9 63.5 213.1 62.9Q213.4 62.4 213.4 61.8L213.4 61.8L213.4 60.9Q213.4 60.2 213.1 59.7Q212.8 59.1 212.3 58.8Q211.8 58.5 211.1 58.5L211.1 58.5Q210.4 58.5 209.9 58.8Q209.4 59.1 209.1 59.8Q208.9 60.4 208.9 61.3L208.9 61.3Q208.9 62.2 209.1 62.8Q209.4 63.5 209.9 63.8Q210.4 64.2 211.1 64.2ZM219.3 65.1L219.3 65.1Q218.6 65.1 218.1 64.9Q217.5 64.6 217.1 64.1Q216.7 63.6 216.5 62.9Q216.2 62.2 216.2 61.3L216.2 61.3Q216.2 60.1 216.6 59.3Q217.0 58.4 217.7 58.0Q218.4 57.5 219.3 57.5L219.3 57.5Q219.9 57.5 220.5 57.7Q221.0 57.9 221.3 58.3Q221.7 58.7 221.9 59.2L221.9 59.2L221.9 59.2L222.0 57.6L223.1 57.6L223.1 65L222.0 65L221.9 63.5L221.9 63.5Q221.6 64.2 220.9 64.7Q220.2 65.1 219.3 65.1ZM219.7 64.2L219.7 64.2Q220.4 64.2 220.9 63.8Q221.4 63.5 221.7 62.9Q221.9 62.4 221.9 61.8L221.9 61.8L221.9 60.9Q221.9 60.2 221.7 59.7Q221.4 59.1 220.9 58.8Q220.4 58.5 219.7 58.5L219.7 58.5Q219.0 58.5 218.5 58.8Q218.0 59.1 217.7 59.8Q217.4 60.4 217.4 61.3L217.4 61.3Q217.4 62.2 217.7 62.8Q218.0 63.5 218.5 63.8Q219.0 64.2 219.7 64.2ZM225.8 67.3L224.9 67.3L224.9 66.4L225.7 66.4Q226.0 66.4 226.2 66.3Q226.5 66.2 226.6 66.0Q226.8 65.8 226.9 65.5L226.9 65.5L227.3 64.5L224.4 57.6L225.7 57.6L227.2 61.7L227.8 63.4L227.9 63.4L228.5 61.7L229.9 57.6L231.2 57.6L228.0 65.8Q227.8 66.3 227.5 66.7Q227.2 67.0 226.8 67.2Q226.4 67.3 225.8 67.3L225.8 67.3ZM235.0 65.1L235.0 65.1Q234.3 65.1 233.8 65.0Q233.2 64.8 232.8 64.5Q232.5 64.2 232.2 63.8Q232.0 63.3 232.0 62.8L232.0 62.8L233.1 62.8Q233.2 63.3 233.4 63.6Q233.7 64.0 234.1 64.1Q234.5 64.3 235.0 64.3L235.0 64.3Q235.9 64.3 236.4 64.0Q236.8 63.6 236.8 63.1L236.8 63.1Q236.8 62.6 236.6 62.4Q236.4 62.1 236.0 62.0Q235.6 61.8 234.9 61.7L234.9 61.7Q234.0 61.6 233.4 61.4Q232.8 61.2 232.5 60.8Q232.2 60.3 232.2 59.7L232.2 59.7Q232.2 59.0 232.6 58.5Q232.9 58.1 233.5 57.8Q234.2 57.5 235.0 57.5L235.0 57.5Q235.9 57.5 236.5 57.8Q237.1 58.1 237.5 58.6Q237.8 59.0 237.8 59.7L237.8 59.7L236.7 59.7Q236.7 59.2 236.5 58.9Q236.2 58.6 235.9 58.5Q235.5 58.4 235.0 58.4L235.0 58.4Q234.2 58.4 233.8 58.7Q233.4 59.0 233.4 59.6L233.4 59.6Q233.4 60.0 233.6 60.2Q233.8 60.5 234.2 60.6Q234.7 60.7 235.3 60.8L235.3 60.8Q236.2 60.9 236.7 61.1Q237.3 61.4 237.6 61.8Q238.0 62.2 238.0 63.0L238.0 63.0Q238.0 63.7 237.6 64.1Q237.2 64.6 236.6 64.9Q235.9 65.1 235.0 65.1Z M245.5 65.1L245.5 65.1Q244.8 65.1 244.3 64.9Q243.7 64.6 243.3 64.1Q242.9 63.6 242.7 62.9Q242.4 62.2 242.4 61.3L242.4 61.3Q242.4 60.1 242.8 59.3Q243.2 58.4 243.9 58.0Q244.6 57.5 245.5 57.5L245.5 57.5Q246.1 57.5 246.6 57.7Q247.2 57.9 247.5 58.3Q247.9 58.7 248.1 59.2L248.1 59.2L248.1 59.2L248.2 57.6L249.3 57.6L249.3 65L248.2 65L248.1 63.5L248.1 63.5Q247.8 64.2 247.1 64.7Q246.4 65.1 245.5 65.1ZM245.9 64.2L245.9 64.2Q246.6 64.2 247.1 63.8Q247.6 63.5 247.9 62.9Q248.1 62.4 248.1 61.8L248.1 61.8L248.1 60.9Q248.1 60.2 247.8 59.7Q247.6 59.1 247.1 58.8Q246.6 58.5 245.9 58.5L245.9 58.5Q245.2 58.5 244.7 58.8Q244.1 59.1 243.9 59.8Q243.6 60.4 243.6 61.3L243.6 61.3Q243.6 62.2 243.9 62.8Q244.1 63.5 244.6 63.8Q245.2 64.2 245.9 64.2ZM254.5 65.1L254.5 65.1Q253.7 65.1 253.0 64.9Q252.4 64.6 251.9 64.1Q251.4 63.6 251.2 62.9Q250.9 62.2 250.9 61.3L250.9 61.3Q250.9 60.5 251.2 59.8Q251.4 59.1 251.9 58.6Q252.4 58.1 253.0 57.8Q253.7 57.5 254.5 57.5L254.5 57.5Q255.4 57.5 256.0 57.8Q256.7 58.2 257.1 58.7Q257.5 59.3 257.6 60.0L257.6 60.0L256.5 60.0Q256.4 59.5 256.1 59.2Q255.8 58.8 255.4 58.7Q255.0 58.5 254.5 58.5L254.5 58.5Q253.9 58.5 253.5 58.7Q253.0 58.9 252.7 59.3Q252.4 59.7 252.2 60.2Q252.1 60.7 252.1 61.3L252.1 61.3Q252.1 62.2 252.4 62.9Q252.7 63.5 253.2 63.8Q253.7 64.2 254.5 64.2L254.5 64.2Q255.0 64.2 255.5 64.0Q255.9 63.7 256.2 63.4Q256.5 63.0 256.6 62.5L256.6 62.5L257.7 62.5Q257.6 63.3 257.2 63.9Q256.7 64.5 256.0 64.8Q255.3 65.1 254.5 65.1ZM262.8 65L261.5 65Q260.7 65 260.3 64.6Q259.9 64.3 259.9 63.4L259.9 63.4L259.9 58.6L258.5 58.6L258.5 57.6L259.9 57.6L259.9 55.5L261.0 55.3L261.0 57.6L262.7 57.6L262.7 58.6L261.0 58.6L261.0 63.2Q261.0 63.7 261.2 63.8Q261.4 64.0 261.8 64.0L261.8 64.0L262.8 64.0L262.8 65ZM265.4 65L264.3 65L264.3 57.6L265.4 57.6L265.4 65ZM264.9 56.4L264.9 56.4Q264.5 56.4 264.3 56.2Q264.2 56.0 264.2 55.7L264.2 55.7Q264.2 55.5 264.3 55.3Q264.5 55.1 264.9 55.1L264.9 55.1Q265.2 55.1 265.4 55.3Q265.6 55.5 265.6 55.7L265.6 55.7Q265.6 56.0 265.4 56.2Q265.2 56.4 264.9 56.4ZM270.9 65L269.4 65L266.8 57.6L268.0 57.6L269.4 62.0L270.1 64.1L270.2 64.1L270.9 62.0L272.3 57.6L273.5 57.6L270.9 65ZM277.7 65.1L277.7 65.1Q276.6 65.1 275.9 64.7Q275.1 64.2 274.8 63.3Q274.4 62.5 274.4 61.4L274.4 61.4Q274.4 60.2 274.8 59.3Q275.1 58.5 275.9 58.0Q276.6 57.5 277.6 57.5L277.6 57.5Q278.8 57.5 279.5 58.0Q280.2 58.5 280.6 59.4Q280.9 60.3 280.8 61.5L280.8 61.5L275.5 61.5Q275.5 62.4 275.8 63.0Q276.0 63.6 276.5 63.9Q277.0 64.2 277.7 64.2L277.7 64.2Q278.5 64.2 279.0 63.9Q279.5 63.5 279.7 62.9L279.7 62.9L280.7 62.9Q280.6 63.6 280.2 64.1Q279.8 64.6 279.1 64.9Q278.5 65.1 277.7 65.1ZM275.5 60.7L275.5 60.7L279.7 60.7Q279.7 60.0 279.5 59.5L279.5 59.5Q279.2 58.9 278.7 58.7Q278.3 58.4 277.6 58.4L277.6 58.4Q277.0 58.4 276.5 58.7Q276.1 59.0 275.8 59.5L275.8 59.5Q275.5 60.0 275.5 60.7Z "/></g><mask id="satori_om-id-2"><rect x="0" y="86" width="800" height="112" fill="#fff"/></mask><mask id="satori_om-id-2-0"><rect x="0" y="86" width="50" height="108" fill="#fff"/></mask><mask id="satori_om-id-2-0-0"><rect x="18" y="126" width="14" height="18" fill="#fff"/></mask><g  ><path fill="#59636e" d="M24.1 140L18.6 140L18.6 139.7Q18.6 139.1 18.8 138.5Q19.0 138.0 19.4 137.6Q19.8 137.1 20.3 136.8Q20.8 136.4 21.3 136.1Q21.8 135.7 22.2 135.4Q22.6 135.0 22.8 134.6Q23.1 134.2 23.1 133.7L23.1 133.7Q23.1 133.2 22.8 132.8Q22.6 132.5 22.2 132.3Q21.9 132.1 21.3 132.1L21.3 132.1Q20.7 132.1 20.3 132.3Q19.9 132.6 19.7 133.0Q19.5 133.4 19.5 133.9L19.5 133.9L18.5 133.9Q18.5 133.1 18.9 132.5Q19.2 131.9 19.9 131.6Q20.5 131.3 21.4 131.3L21.4 131.3Q22.2 131.3 22.8 131.6Q23.4 131.9 23.7 132.4Q24.0 133.0 24.0 133.7L24.0 133.7Q24.0 134.3 23.8 134.7Q23.6 135.2 23.2 135.6Q22.8 136.0 22.4 136.3Q21.9 136.6 21.5 137.0Q21.0 137.3 20.6 137.6Q20.2 137.9 19.9 138.3Q19.7 138.7 19.6 139.1L19.6 139.1L24.1 139.1L24.1 140ZM28.0 140.1L28.0 140.1Q27.2 140.1 26.5 139.8Q25.9 139.5 25.5 138.9Q25.2 138.4 25.2 137.6L25.2 137.6L26.1 137.6Q26.1 138.1 26.4 138.5Q26.6 138.9 27.0 139.1Q27.5 139.3 28.0 139.3L28.0 139.3Q28.9 139.3 29.4 138.8Q30.0 138.3 30.0 137.5L30.0 137.5Q30.0 137 29.7 136.6Q29.5 136.3 29.1 136.1Q28.7 135.9 28.2 135.9L28.2 135.9L27.3 135.9L27.3 135.2L28.0 135.2Q28.6 135.2 29.1 135.0Q29.5 134.8 29.7 134.4Q29.9 134.0 29.9 133.6L29.9 133.6Q29.9 133.1 29.7 132.8Q29.5 132.4 29.1 132.2Q28.7 132.1 28.1 132.1L28.1 132.1Q27.6 132.1 27.2 132.3Q26.8 132.5 26.6 132.8Q26.3 133.2 26.3 133.7L26.3 133.7L25.3 133.7Q25.4 133.0 25.7 132.4Q26.1 131.9 26.7 131.5Q27.3 131.2 28.2 131.2L28.2 131.2Q29.0 131.2 29.6 131.5Q30.2 131.8 30.6 132.3Q30.9 132.8 30.9 133.5L30.9 133.5Q30.9 134.0 30.7 134.4Q30.5 134.8 30.2 135.1Q29.8 135.3 29.4 135.5L29.4 135.5L29.4 135.5Q29.9 135.6 30.2 135.9Q30.6 136.2 30.8 136.6Q31.0 137.1 31.0 137.6L31.0 137.6Q31.0 138.4 30.6 138.9Q30.2 139.5 29.6 139.8Q28.9 140.1 28.0 140.1Z "/></g><mask id="satori_om-id-2-0-1"><rect x="7" y="148" width="36" height="46" fill="#fff"/></mask><path x="7" y="148" width="36" height="46" fill="#40c463" d="M12,148 h26 a5,5 0 0 1 5,5 v41 a0,0 0 0 1 0,0 h-36 a0,0 0 0 1 0,0 v-41 a5,5 0 0 1 5,-5"/><mask id="satori_om-id-2-1"><rect x="62" y="86" width="50" height="108" fill="#fff"/></mask><mask id="satori_om-id-2-1-0"><rect x="82" y="130" width="11" height="18" fill="#fff"/></mask><g  ><path fill="#59636e" d="M88.1 144L82.6 144L82.6 143.7Q82.6 143.1 82.8 142.5Q83.0 142.0 83.4 141.6Q83.8 141.1 84.3 140.8Q84.8 140.4 85.3 140.1Q85.8 139.7 86.2 139.4Q86.6 139.0 86.8 138.6Q87.1 138.2 87.1 137.7L87.1 137.7Q87.1 137.2 86.8 136.8Q86.6 136.5 86.2 136.3Q85.9 136.1 85.3 136.1L85.3 136.1Q84.7 136.1 84.3 136.3Q83.9 136.6 83.7 137.0Q83.5 137.4 83.5 137.9L83.5 137.9L82.5 137.9Q82.5 137.1 82.9 136.5Q83.2 135.9 83.9 135.6Q84.5 135.3 85.4 135.3L85.4 135.3Q86.2 135.3 86.8 135.6Q87.4 135.9 87.7 136.4Q88.0 137.0 88.0 137.7L88.0 137.7Q88.0 138.3 87.8 138.7Q87.6 139.2 87.2 139.6Q86.8 140.0 86.4 140.3Q85.9 140.6 85.5 141.0Q85.0 141.3 84.6 141.6Q84.2 141.9 83.9 142.3Q83.7 142.7 83.6 143.1L83.6 143.1L88.1 143.1L88.1 144ZM92.1 144L91.2 144L91.2 137.5L89.1 137.5L89.1 136.8L89.5 136.8Q90.3 136.8 90.7 136.4Q91.1 136.0 91.2 135.3L91.2 135.3L92.1 135.3L92.1 144Z "/></g><mask id="satori_om-id-2-1-1"><rect x="69" y="152" width="36" height="42" fill="#fff"/></mask><path x="69" y="152" width="36" height="42" fill="#40c463" d="M74,152 h26 a5,5 0 0 1 5,5 v37 a0,0 0 0 1 0,0 h-36 a0,0 0 0 1 0,0 v-37 a5,5 0 0 1 5,-5"/><mask id="satori_om-id-2-2"><rect x="124" y="86" width="50" height="108" fill="#fff"/></mask><mask id="satori_om-id-2-2-0"><rect x="143" y="138" width="12" height="18" fill="#fff"/></mask><g  ><path fill="#59636e" d="M146.3 152L145.4 152L145.4 145.5L143.3 145.5L143.3 144.8L143.7 144.8Q144.5 144.8 144.9 144.4Q145.3 144.0 145.4 143.3L145.4 143.3L146.3 143.3L146.3 152ZM150.8 152L149.8 152Q149.8 150.7 150.0 149.6Q150.2 148.5 150.6 147.6Q151.0 146.6 151.5 145.8Q152 145.0 152.5 144.2L152.5 144.2L148.6 144.2L148.6 146.0L147.8 146.0L147.8 143.3L153.7 143.3L153.7 144.0Q153.2 144.7 152.8 145.4Q152.4 146.0 152.0 146.8Q151.7 147.5 151.4 148.3Q151.1 149.1 151.0 150.0Q150.8 150.9 150.8 152L150.8 152Z "/></g><mask id="satori_om-id-2-2-1"><rect x="131" y="160" width="36" height="34" fill="#fff"/></mask><path x="131" y="160" width="36" height="34" fill="#40c463" d="M136,160 h26 a5,5 0 0 1 5,5 v29 a0,0 0 0 1 0,0 h-36 a0,0 0 0 1 0,0 v-29 a5,5 0 0 1 5,-5"/><mask id="satori_om-id-2-3"><rect x="186" y="86" width="50" height="108" fill="#fff"/></mask><mask id="satori_om-id-2-3-0"><rect x="204" y="122" width="14" height="18" fill="#fff"/></mask><g  ><path fill="#59636e" d="M210.1 136L204.6 136L204.6 135.7Q204.6 135.1 204.8 134.5Q205.0 134.0 205.4 133.6Q205.8 133.1 206.3 132.8Q206.8 132.4 207.3 132.1Q207.8 131.7 208.2 131.4Q208.6 131.0 208.8 130.6Q209.1 130.2 209.1 129.7L209.1 129.7Q209.1 129.2 208.8 128.8Q208.6 128.5 208.2 128.3Q207.9 128.1 207.3 128.1L207.3 128.1Q206.7 128.1 206.3 128.3Q205.9 128.6 205.7 129.0Q205.5 129.4 205.5 129.9L205.5 129.9L204.5 129.9Q204.5 129.1 204.9 128.5Q205.2 127.9 205.9 127.6Q206.5 127.3 207.4 127.3L207.4 127.3Q208.2 127.3 208.8 127.6Q209.4 127.9 209.7 128.4Q210.0 129.0 210.0 129.7L210.0 129.7Q210.0 130.3 209.8 130.7Q209.6 131.2 209.2 131.6Q208.8 132.0 208.4 132.3Q207.9 132.6 207.5 133.0Q207.0 133.3 206.6 133.6Q206.2 133.9 205.9 134.3Q205.7 134.7 205.6 135.1L205.6 135.1L210.1 135.1L210.1 136ZM214.1 136.1L214.1 136.1Q213.3 136.1 212.7 135.8Q212.0 135.5 211.7 134.9Q211.3 134.4 211.3 133.7L211.3 133.7L212.3 133.7Q212.3 134.2 212.5 134.5Q212.8 134.9 213.2 135.1Q213.6 135.3 214.1 135.3L214.1 135.3Q214.8 135.3 215.2 135.0Q215.7 134.7 215.9 134.3Q216.1 133.8 216.1 133.2L216.1 133.2Q216.1 132.6 215.9 132.2Q215.6 131.7 215.2 131.5Q214.8 131.2 214.2 131.2L214.2 131.2Q213.5 131.2 213.1 131.5Q212.6 131.8 212.4 132.3L212.4 132.3L211.4 132.3L211.8 127.3L216.9 127.3L216.9 128.2L212.6 128.2L212.4 131.3L212.4 131.4Q212.7 130.9 213.2 130.7Q213.7 130.4 214.4 130.4L214.4 130.4Q215.0 130.4 215.5 130.6Q216.0 130.8 216.4 131.2Q216.7 131.6 216.9 132.1Q217.1 132.6 217.1 133.2L217.1 133.2Q217.1 134.1 216.8 134.7Q216.4 135.4 215.7 135.7Q215.0 136.1 214.1 136.1Z "/></g><mask id="satori_om-id-2-3-1"><rect x="193" y="144" width="36" height="50" fill="#fff"/></mask><path x="193" y="144" width="36" height="50" fill="#40c463" d="M198,144 h26 a5,5 0 0 1 5,5 v45 a0,0 0 0 1 0,0 h-36 a0,0 0 0 1 0,0 v-45 a5,5 0 0 1 5,-5"/><mask id="satori_om-id-2-4"><rect x="248" y="86" width="50" height="108" fill="#fff"/></mask><mask id="satori_om-id-2-4-0"><rect x="266" y="106" width="14" height="18" fill="#fff"/></mask><g  ><path fill="#59636e" d="M269.3 120.1L269.3 120.1Q268.5 120.1 267.8 119.8Q267.2 119.5 266.8 118.9Q266.5 118.4 266.5 117.6L266.5 117.6L267.4 117.6Q267.4 118.1 267.7 118.5Q267.9 118.9 268.3 119.1Q268.8 119.3 269.3 119.3L269.3 119.3Q270.2 119.3 270.7 118.8Q271.3 118.3 271.3 117.5L271.3 117.5Q271.3 117 271.0 116.6Q270.8 116.3 270.4 116.1Q270.0 115.9 269.5 115.9L269.5 115.9L268.6 115.9L268.6 115.2L269.3 115.2Q269.9 115.2 270.4 115.0Q270.8 114.8 271.0 114.4Q271.2 114.0 271.2 113.6L271.2 113.6Q271.2 113.1 271.0 112.8Q270.8 112.4 270.4 112.2Q270.0 112.1 269.4 112.1L269.4 112.1Q268.9 112.1 268.5 112.3Q268.1 112.5 267.9 112.8Q267.6 113.2 267.6 113.7L267.6 113.7L266.6 113.7Q266.7 113.0 267.0 112.4Q267.4 111.9 268.0 111.5Q268.6 111.2 269.5 111.2L269.5 111.2Q270.3 111.2 270.9 111.5Q271.5 111.8 271.9 112.3Q272.2 112.8 272.2 113.5L272.2 113.5Q272.2 114.0 272 114.4Q271.8 114.8 271.5 115.1Q271.1 115.3 270.7 115.5L270.7 115.5L270.7 115.5Q271.2 115.6 271.6 115.9Q271.9 116.2 272.1 116.6Q272.3 117.1 272.3 117.6L272.3 117.6Q272.3 118.4 271.9 118.9Q271.5 119.5 270.9 119.8Q270.2 120.1 269.3 120.1ZM276.4 120.1L276.4 120.1Q275.5 120.1 274.9 119.8Q274.3 119.5 273.9 118.9Q273.6 118.4 273.5 117.6L273.5 117.6L274.5 117.6Q274.5 118.1 274.8 118.5Q275 118.9 275.4 119.1Q275.8 119.3 276.4 119.3L276.4 119.3Q277.3 119.3 277.8 118.8Q278.3 118.3 278.3 117.5L278.3 117.5Q278.3 117 278.1 116.6Q277.9 116.3 277.5 116.1Q277.1 115.9 276.6 115.9L276.6 115.9L275.7 115.9L275.7 115.2L276.4 115.2Q277.0 115.2 277.4 115.0Q277.9 114.8 278.1 114.4Q278.3 114.0 278.3 113.6L278.3 113.6Q278.3 113.1 278.1 112.8Q277.9 112.4 277.5 112.2Q277.1 112.1 276.5 112.1L276.5 112.1Q276.0 112.1 275.6 112.3Q275.2 112.5 274.9 112.8Q274.7 113.2 274.7 113.7L274.7 113.7L273.7 113.7Q273.7 113.0 274.1 112.4Q274.5 111.9 275.1 111.5Q275.7 111.2 276.5 111.2L276.5 111.2Q277.4 111.2 278.0 111.5Q278.6 111.8 278.9 112.3Q279.3 112.8 279.3 113.5L279.3 113.5Q279.3 114.0 279.1 114.4Q278.9 114.8 278.6 115.1Q278.2 115.3 277.8 115.5L277.8 115.5L277.8 115.5Q278.3 115.6 278.6 115.9Q279.0 116.2 279.2 116.6Q279.3 117.1 279.3 117.6L279.3 117.6Q279.3 118.4 279.0 118.9Q278.6 119.5 277.9 119.8Q277.3 120.1 276.4 120.1Z "/></g><mask id="satori_om-id-2-4-1"><rect x="255" y="128" width="36" height="66" fill="#fff"/></mask><path x="255" y="128" width="36" height="66" fill="#40c463" d="M260,128 h26 a5,5 0 0 1 5,5 v61 a0,0 0 0 1 0,0 h-36 a0,0 0 0 1 0,0 v-61 a5,5 0 0 1 5,-5"/><mask id="satori_om-id-2-5"><rect x="310" y="86" width="50" height="108" fill="#fff"/></mask><mask id="satori_om-id-2-5-0"><rect x="328" y="126" width="14" height="18" fill="#fff"/></mask><g  ><path fill="#59636e" d="M334.1 140L328.6 140L328.6 139.7Q328.6 139.1 328.8 138.5Q329.0 138.0 329.4 137.6Q329.8 137.1 330.3 136.8Q330.8 136.4 331.3 136.1Q331.8 135.7 332.2 135.4Q332.6 135.0 332.8 134.6Q333.1 134.2 333.1 133.7L333.1 133.7Q333.1 133.2 332.8 132.8Q332.6 132.5 332.2 132.3Q331.9 132.1 331.3 132.1L331.3 132.1Q330.7 132.1 330.3 132.3Q329.9 132.6 329.7 133.0Q329.5 133.4 329.5 133.9L329.5 133.9L328.5 133.9Q328.5 133.1 328.9 132.5Q329.2 131.9 329.9 131.6Q330.5 131.3 331.4 131.3L331.4 131.3Q332.2 131.3 332.8 131.6Q333.4 131.9 333.7 132.4Q334.0 133.0 334.0 133.7L334.0 133.7Q334.0 134.3 333.8 134.7Q333.6 135.2 333.2 135.6Q332.8 136.0 332.4 136.3Q331.9 136.6 331.5 137.0Q331.0 137.3 330.6 137.6Q330.2 137.9 329.9 138.3Q329.7 138.7 329.6 139.1L329.6 139.1L334.1 139.1L334.1 140ZM338.0 140.1L338.0 140.1Q337.2 140.1 336.5 139.8Q335.9 139.5 335.5 138.9Q335.2 138.4 335.2 137.6L335.2 137.6L336.1 137.6Q336.1 138.1 336.4 138.5Q336.6 138.9 337.0 139.1Q337.5 139.3 338.0 139.3L338.0 139.3Q338.9 139.3 339.4 138.8Q340.0 138.3 340.0 137.5L340.0 137.5Q340.0 137 339.7 136.6Q339.5 136.3 339.1 136.1Q338.7 135.9 338.2 135.9L338.2 135.9L337.3 135.9L337.3 135.2L338.0 135.2Q338.6 135.2 339.1 135.0Q339.5 134.8 339.7 134.4Q339.9 134.0 339.9 133.6L339.9 133.6Q339.9 133.1 339.7 132.8Q339.5 132.4 339.1 132.2Q338.7 132.1 338.1 132.1L338.1 132.1Q337.6 132.1 337.2 132.3Q336.8 132.5 336.6 132.8Q336.3 133.2 336.3 133.7L336.3 133.7L335.3 133.7Q335.4 133.0 335.7 132.4Q336.1 131.9 336.7 131.5Q337.3 131.2 338.2 131.2L338.2 131.2Q339.0 131.2 339.6 131.5Q340.2 131.8 340.6 132.3Q340.9 132.8 340.9 133.5L340.9 133.5Q340.9 134.0 340.7 134.4Q340.5 134.8 340.2 135.1Q339.8 135.3 339.4 135.5L339.4 135.5L339.4 135.5Q339.9 135.6 340.2 135.9Q340.6 136.2 340.8 136.6Q341.0 137.1 341.0 137.6L341.0 137.6Q341.0 138.4 340.6 138.9Q340.2 139.5 339.6 139.8Q338.9 140.1 338.0 140.1Z "/></g><mask id="satori_om-id-2-5-1"><rect x="317" y="148" width="36" height="46" fill="#fff"/></mask><path x="317" y="148" width="36" height="46" fill="#40c463" d="M322,148 h26 a5,5 0 0 1 5,5 v41 a0,0 0 0 1 0,0 h-36 a0,0 0 0 1 0,0 v-41 a5,5 0 0 1 5,-5"/><mask id="satori_om-id-2-6"><rect x="372" y="86" width="50" height="108" fill="#fff"/></mask><mask id="satori_om-id-2-6-0"><rect x="393" y="154" width="8" height="18" fill="#fff"/></mask><g  ><path fill="#59636e" d="M396.6 159.2L396.6 159.2Q397.3 159.2 397.9 159.5Q398.5 159.7 398.9 160.2Q399.3 160.8 399.5 161.5Q399.7 162.2 399.7 163.2L399.7 163.2Q399.7 164.5 399.5 165.4Q399.3 166.3 398.9 166.9Q398.4 167.5 397.8 167.8Q397.2 168.1 396.4 168.1L396.4 168.1Q395.8 168.1 395.4 167.9Q394.9 167.8 394.5 167.5Q394.1 167.2 393.9 166.8Q393.7 166.4 393.6 165.9L393.6 165.9L394.6 165.9Q394.7 166.2 394.8 166.5Q395.0 166.8 395.2 166.9Q395.5 167.1 395.8 167.2Q396.1 167.3 396.4 167.3L396.4 167.3Q397.1 167.3 397.6 167.0Q398.0 166.7 398.3 166.2Q398.5 165.7 398.6 164.9Q398.7 164.2 398.7 163.3L398.7 163.3L398.7 163.3Q398.5 163.8 398.2 164.1Q397.9 164.4 397.4 164.6Q396.9 164.8 396.3 164.8L396.3 164.8Q395.5 164.8 394.9 164.5Q394.3 164.1 393.9 163.5Q393.6 162.9 393.6 162.1L393.6 162.1Q393.6 161.2 394.0 160.6Q394.3 159.9 395.0 159.6Q395.7 159.2 396.6 159.2ZM396.5 160.1L396.5 160.1Q396.0 160.1 395.5 160.3Q395.1 160.6 394.8 161.0Q394.6 161.5 394.6 162.1L394.6 162.1Q394.6 162.7 394.8 163.1Q395.1 163.6 395.5 163.8Q396.0 164.0 396.5 164.0L396.5 164.0Q397.2 164.0 397.6 163.8Q398.1 163.5 398.3 163.0Q398.5 162.6 398.5 162.0L398.5 162.0Q398.5 161.4 398.3 161.0Q398.0 160.6 397.6 160.3Q397.1 160.1 396.5 160.1Z "/></g><mask id="satori_om-id-2-6-1"><rect x="379" y="176" width="36" height="18" fill="#fff"/></mask><path x="379" y="176" width="36" height="18" fill="#40c463" d="M384,176 h26 a5,5 0 0 1 5,5 v13 a0,0 0 0 1 0,0 h-36 a0,0 0 0 1 0,0 v-13 a5,5 0 0 1 5,-5"/><mask id="satori_om-id-2-7"><rect x="434" y="86" width="50" height="108" fill="#fff"/></mask><mask id="satori_om-id-2-7-0"><rect x="452" y="116" width="14" height="18" fill="#fff"/></mask><g  ><path fill="#59636e" d="M458.1 130L452.6 130L452.6 129.7Q452.6 129.1 452.8 128.5Q453.0 128.0 453.4 127.6Q453.8 127.1 454.3 126.8Q454.8 126.4 455.3 126.1Q455.8 125.7 456.2 125.4Q456.6 125.0 456.8 124.6Q457.1 124.2 457.1 123.7L457.1 123.7Q457.1 123.2 456.8 122.8Q456.6 122.5 456.2 122.3Q455.9 122.1 455.3 122.1L455.3 122.1Q454.7 122.1 454.3 122.3Q453.9 122.6 453.7 123.0Q453.5 123.4 453.5 123.9L453.5 123.9L452.5 123.9Q452.5 123.1 452.9 122.5Q453.2 121.9 453.9 121.6Q454.5 121.3 455.4 121.3L455.4 121.3Q456.2 121.3 456.8 121.6Q457.4 121.9 457.7 122.4Q458.0 123.0 458.0 123.7L458.0 123.7Q458.0 124.3 457.8 124.7Q457.6 125.2 457.2 125.6Q456.8 126.0 456.4 126.3Q455.9 126.6 455.5 127.0Q455.0 127.3 454.6 127.6Q454.2 127.9 453.9 128.3Q453.7 128.7 453.6 129.1L453.6 129.1L458.1 129.1L458.1 130ZM462.2 130.1L462.2 130.1Q461.5 130.1 461.0 129.9Q460.4 129.8 460.0 129.5Q459.6 129.1 459.4 128.7Q459.2 128.3 459.2 127.7L459.2 127.7Q459.2 127.2 459.4 126.7Q459.6 126.3 460.0 126.0Q460.4 125.7 461.0 125.6L461.0 125.6L461.0 125.5Q460.6 125.4 460.2 125.1Q459.9 124.8 459.7 124.4Q459.5 124 459.5 123.5L459.5 123.5Q459.5 122.8 459.8 122.3Q460.1 121.8 460.8 121.5Q461.4 121.3 462.2 121.3L462.2 121.3Q463.1 121.3 463.7 121.5Q464.3 121.8 464.6 122.3Q464.9 122.8 464.9 123.5L464.9 123.5Q464.9 124 464.7 124.4Q464.5 124.8 464.2 125.1Q463.8 125.4 463.4 125.5L463.4 125.5L463.4 125.6Q464.0 125.7 464.4 126.0Q464.8 126.3 465.0 126.7Q465.2 127.2 465.2 127.7L465.2 127.7Q465.2 128.4 464.8 129.0Q464.5 129.5 463.8 129.8Q463.1 130.1 462.2 130.1ZM462.2 129.3L462.2 129.3Q462.8 129.3 463.3 129.1Q463.7 128.9 464.0 128.5Q464.2 128.1 464.2 127.6L464.2 127.6Q464.2 127.1 464.0 126.8Q463.8 126.4 463.4 126.2Q462.9 125.9 462.2 125.9L462.2 125.9Q461.5 125.9 461.0 126.2Q460.6 126.4 460.4 126.8Q460.2 127.1 460.2 127.6L460.2 127.6Q460.2 128.1 460.4 128.5Q460.7 128.9 461.1 129.1Q461.6 129.3 462.2 129.3ZM462.2 125.2L462.2 125.2Q462.8 125.2 463.2 124.9Q463.6 124.7 463.8 124.4Q464.0 124 464.0 123.6L464.0 123.6Q464.0 123.2 463.8 122.9Q463.6 122.5 463.3 122.3Q462.9 122.1 462.2 122.1L462.2 122.1Q461.5 122.1 461.2 122.3Q460.8 122.5 460.6 122.9Q460.4 123.2 460.4 123.6L460.4 123.6Q460.4 123.9 460.5 124.2Q460.6 124.5 460.8 124.7Q461.0 124.9 461.4 125.0Q461.7 125.2 462.2 125.2Z "/></g><mask id="satori_om-id-2-7-1"><rect x="441" y="138" width="36" height="56" fill="#fff"/></mask><path x="441" y="138" width="36" height="56" fill="#40c463" d="M446,138 h26 a5,5 0 0 1 5,5 v51 a0,0 0 0 1 0,0 h-36 a0,0 0 0 1 0,0 v-51 a5,5 0 0 1 5,-5"/><mask id="satori_om-id-2-8"><rect x="496" y="86" width="50" height="108" fill="#fff"/></mask><mask id="satori_om-id-2-8-0"><rect x="515" y="110" width="12" height="18" fill="#fff"/></mask><g  ><path fill="#59636e" d="M518.3 124.1L518.3 124.1Q517.5 124.1 516.8 123.8Q516.2 123.5 515.8 122.9Q515.5 122.4 515.5 121.6L515.5 121.6L516.4 121.6Q516.4 122.1 516.7 122.5Q516.9 122.9 517.3 123.1Q517.8 123.3 518.3 123.3L518.3 123.3Q519.2 123.3 519.7 122.8Q520.3 122.3 520.3 121.5L520.3 121.5Q520.3 121 520.0 120.6Q519.8 120.3 519.4 120.1Q519.0 119.9 518.5 119.9L518.5 119.9L517.6 119.9L517.6 119.2L518.3 119.2Q518.9 119.2 519.4 119.0Q519.8 118.8 520.0 118.4Q520.2 118.0 520.2 117.6L520.2 117.6Q520.2 117.1 520.0 116.8Q519.8 116.4 519.4 116.2Q519.0 116.1 518.4 116.1L518.4 116.1Q517.9 116.1 517.5 116.3Q517.1 116.5 516.9 116.8Q516.6 117.2 516.6 117.7L516.6 117.7L515.6 117.7Q515.7 117.0 516.0 116.4Q516.4 115.9 517.0 115.5Q517.6 115.2 518.5 115.2L518.5 115.2Q519.3 115.2 519.9 115.5Q520.5 115.8 520.9 116.3Q521.2 116.8 521.2 117.5L521.2 117.5Q521.2 118.0 521 118.4Q520.8 118.8 520.5 119.1Q520.1 119.3 519.7 119.5L519.7 119.5L519.7 119.5Q520.2 119.6 520.5 119.9Q520.9 120.2 521.1 120.6Q521.3 121.1 521.3 121.6L521.3 121.6Q521.3 122.4 520.9 122.9Q520.5 123.5 519.9 123.8Q519.2 124.1 518.3 124.1ZM525.4 124L524.4 124L524.4 117.5L522.3 117.5L522.3 116.8L522.7 116.8Q523.5 116.8 523.9 116.4Q524.3 116.0 524.4 115.3L524.4 115.3L525.4 115.3L525.4 124Z "/></g><mask id="satori_om-id-2-8-1"><rect x="503" y="132" width="36" height="62" fill="#fff"/></mask><path x="503" y="132" width="36" height="62" fill="#40c463" d="M508,132 h26 a5,5 0 0 1 5,5 v57 a0,0 0 0 1 0,0 h-36 a0,0 0 0 1 0,0 v-57 a5,5 0 0 1 5,-5"/><mask id="satori_om-id-2-9"><rect x="558" y="86" width="50" height="108" fill="#fff"/></mask><mask id="satori_om-id-2-9-0"><rect x="576" y="116" width="14" height="18" fill="#fff"/></mask><g  ><path fill="#59636e" d="M582.1 130L576.6 130L576.6 129.7Q576.6 129.1 576.8 128.5Q577.0 128.0 577.4 127.6Q577.8 127.1 578.3 126.8Q578.8 126.4 579.3 126.1Q579.8 125.7 580.2 125.4Q580.6 125.0 580.8 124.6Q581.1 124.2 581.1 123.7L581.1 123.7Q581.1 123.2 580.8 122.8Q580.6 122.5 580.2 122.3Q579.9 122.1 579.3 122.1L579.3 122.1Q578.7 122.1 578.3 122.3Q577.9 122.6 577.7 123.0Q577.5 123.4 577.5 123.9L577.5 123.9L576.5 123.9Q576.5 123.1 576.9 122.5Q577.2 121.9 577.9 121.6Q578.5 121.3 579.4 121.3L579.4 121.3Q580.2 121.3 580.8 121.6Q581.4 121.9 581.7 122.4Q582.0 123.0 582.0 123.7L582.0 123.7Q582.0 124.3 581.8 124.7Q581.6 125.2 581.2 125.6Q580.8 126.0 580.4 126.3Q579.9 126.6 579.5 127.0Q579.0 127.3 578.6 127.6Q578.2 127.9 577.9 128.3Q577.7 128.7 577.6 129.1L577.6 129.1L582.1 129.1L582.1 130ZM586.2 130.1L586.2 130.1Q585.5 130.1 585.0 129.9Q584.4 129.8 584.0 129.5Q583.6 129.1 583.4 128.7Q583.2 128.3 583.2 127.7L583.2 127.7Q583.2 127.2 583.4 126.7Q583.6 126.3 584.0 126.0Q584.4 125.7 585.0 125.6L585.0 125.6L585.0 125.5Q584.6 125.4 584.2 125.1Q583.9 124.8 583.7 124.4Q583.5 124 583.5 123.5L583.5 123.5Q583.5 122.8 583.8 122.3Q584.1 121.8 584.8 121.5Q585.4 121.3 586.2 121.3L586.2 121.3Q587.1 121.3 587.7 121.5Q588.3 121.8 588.6 122.3Q588.9 122.8 588.9 123.5L588.9 123.5Q588.9 124 588.7 124.4Q588.5 124.8 588.2 125.1Q587.8 125.4 587.4 125.5L587.4 125.5L587.4 125.6Q588.0 125.7 588.4 126.0Q588.8 126.3 589.0 126.7Q589.2 127.2 589.2 127.7L589.2 127.7Q589.2 128.4 588.8 129.0Q588.5 129.5 587.8 129.8Q587.1 130.1 586.2 130.1ZM586.2 129.3L586.2 129.3Q586.8 129.3 587.3 129.1Q587.7 128.9 588.0 128.5Q588.2 128.1 588.2 127.6L588.2 127.6Q588.2 127.1 588.0 126.8Q587.8 126.4 587.4 126.2Q586.9 125.9 586.2 125.9L586.2 125.9Q585.5 125.9 585.0 126.2Q584.6 126.4 584.4 126.8Q584.2 127.1 584.2 127.6L584.2 127.6Q584.2 128.1 584.4 128.5Q584.7 128.9 585.1 129.1Q585.6 129.3 586.2 129.3ZM586.2 125.2L586.2 125.2Q586.8 125.2 587.2 124.9Q587.6 124.7 587.8 124.4Q588.0 124 588.0 123.6L588.0 123.6Q588.0 123.2 587.8 122.9Q587.6 122.5 587.3 122.3Q586.9 122.1 586.2 122.1L586.2 122.1Q585.5 122.1 585.1 122.3Q584.8 122.5 584.6 122.9Q584.4 123.2 584.4 123.6L584.4 123.6Q584.4 123.9 584.5 124.2Q584.6 124.5 584.8 124.7Q585.0 124.9 585.4 125.0Q585.7 125.2 586.2 125.2Z "/></g><mask id="satori_om-id-2-9-1"><rect x="565" y="138" width="36" height="56" fill="#fff"/></mask><path x="565" y="138" width="36" height="56" fill="#40c463" d="M570,138 h26 a5,5 0 0 1 5,5 v51 a0,0 0 0 1 0,0 h-36 a0,0 0 0 1 0,0 v-51 a5,5 0 0 1 5,-5"/><mask id="satori_om-id-2-10"><rect x="620" y="86" width="50" height="108" fill="#fff"/></mask><mask id="satori_om-id-2-10-0"><rect x="641" y="154" width="8" height="18" fill="#fff"/></mask><g  ><path fill="#59636e" d="M644.6 159.2L644.6 159.2Q645.3 159.2 645.9 159.5Q646.5 159.7 646.9 160.2Q647.3 160.8 647.5 161.5Q647.7 162.2 647.7 163.2L647.7 163.2Q647.7 164.5 647.5 165.4Q647.3 166.3 646.9 166.9Q646.4 167.5 645.8 167.8Q645.2 168.1 644.4 168.1L644.4 168.1Q643.8 168.1 643.4 167.9Q642.9 167.8 642.5 167.5Q642.1 167.2 641.9 166.8Q641.7 166.4 641.6 165.9L641.6 165.9L642.6 165.9Q642.7 166.2 642.8 166.5Q643.0 166.8 643.2 166.9Q643.5 167.1 643.8 167.2Q644.1 167.3 644.4 167.3L644.4 167.3Q645.1 167.3 645.6 167.0Q646.0 166.7 646.3 166.2Q646.5 165.7 646.6 164.9Q646.7 164.2 646.7 163.3L646.7 163.3L646.7 163.3Q646.5 163.8 646.2 164.1Q645.9 164.4 645.4 164.6Q644.9 164.8 644.3 164.8L644.3 164.8Q643.5 164.8 642.9 164.5Q642.3 164.1 641.9 163.5Q641.6 162.9 641.6 162.1L641.6 162.1Q641.6 161.2 642.0 160.6Q642.3 159.9 643.0 159.6Q643.7 159.2 644.6 159.2ZM644.5 160.1L644.5 160.1Q644.0 160.1 643.5 160.3Q643.1 160.6 642.8 161.0Q642.6 161.5 642.6 162.1L642.6 162.1Q642.6 162.7 642.8 163.1Q643.1 163.6 643.5 163.8Q644.0 164.0 644.5 164.0L644.5 164.0Q645.2 164.0 645.6 163.8Q646.1 163.5 646.3 163.0Q646.5 162.6 646.5 162.0L646.5 162.0Q646.5 161.4 646.3 161.0Q646.0 160.6 645.6 160.3Q645.1 160.1 644.5 160.1Z "/></g><mask id="satori_om-id-2-10-1"><rect x="627" y="176" width="36" height="18" fill="#fff"/></mask><path x="627" y="176" width="36" height="18" fill="#40c463" d="M632,176 h26 a5,5 0 0 1 5,5 v13 a0,0 0 0 1 0,0 h-36 a0,0 0 0 1 0,0 v-13 a5,5 0 0 1 5,-5"/><mask id="satori_om-id-2-11"><rect x="682" y="86" width="50" height="108" fill="#fff"/></mask><mask id="satori_om-id-2-11-0"><rect x="700" y="122" width="14" height="18" fill="#fff"/></mask><g  ><path fill="#59636e" d="M706.1 136L700.6 136L700.6 135.7Q700.6 135.1 700.8 134.5Q701.0 134.0 701.4 133.6Q701.8 133.1 702.3 132.8Q702.8 132.4 703.3 132.1Q703.8 131.7 704.2 131.4Q704.6 131.0 704.8 130.6Q705.1 130.2 705.1 129.7L705.1 129.7Q705.1 129.2 704.8 128.8Q704.6 128.5 704.2 128.3Q703.9 128.1 703.3 128.1L703.3 128.1Q702.7 128.1 702.3 128.3Q701.9 128.6 701.7 129.0Q701.5 129.4 701.5 129.9L701.5 129.9L700.5 129.9Q700.5 129.1 700.9 128.5Q701.2 127.9 701.9 127.6Q702.5 127.3 703.4 127.3L703.4 127.3Q704.2 127.3 704.8 127.6Q705.4 127.9 705.7 128.4Q706.0 129.0 706.0 129.7L706.0 129.7Q706.0 130.3 705.8 130.7Q705.6 131.2 705.2 131.6Q704.8 132.0 704.4 132.3Q703.9 132.6 703.5 133.0Q703.0 133.3 702.6 133.6Q702.2 133.9 701.9 134.3Q701.7 134.7 701.6 135.1L701.6 135.1L706.1 135.1L706.1 136ZM710.1 136.1L710.1 136.1Q709.3 136.1 708.7 135.8Q708.0 135.5 707.7 134.9Q707.3 134.4 707.3 133.7L707.3 133.7L708.3 133.7Q708.3 134.2 708.5 134.5Q708.8 134.9 709.2 135.1Q709.6 135.3 710.1 135.3L710.1 135.3Q710.8 135.3 711.2 135.0Q711.7 134.7 711.9 134.3Q712.1 133.8 712.1 133.2L712.1 133.2Q712.1 132.6 711.9 132.2Q711.6 131.7 711.2 131.5Q710.8 131.2 710.2 131.2L710.2 131.2Q709.5 131.2 709.1 131.5Q708.6 131.8 708.4 132.3L708.4 132.3L707.4 132.3L707.8 127.3L712.9 127.3L712.9 128.2L708.6 128.2L708.4 131.3L708.4 131.4Q708.7 130.9 709.2 130.7Q709.7 130.4 710.4 130.4L710.4 130.4Q711.0 130.4 711.5 130.6Q712.0 130.8 712.4 131.2Q712.7 131.6 712.9 132.1Q713.1 132.6 713.1 133.2L713.1 133.2Q713.1 134.1 712.8 134.7Q712.4 135.4 711.7 135.7Q711.0 136.1 710.1 136.1Z "/></g><mask id="satori_om-id-2-11-1"><rect x="689" y="144" width="36" height="50" fill="#fff"/></mask><path x="689" y="144" width="36" height="50" fill="#40c463" d="M694,144 h26 a5,5 0 0 1 5,5 v45 a0,0 0 0 1 0,0 h-36 a0,0 0 0 1 0,0 v-45 a5,5 0 0 1 5,-5"/><mask id="satori_om-id-2-12"><rect x="744" y="86" width="50" height="108" fill="#fff"/></mask><mask id="satori_om-id-2-12-0"><rect x="762" y="92" width="15" height="18" fill="#fff"/></mask><g  ><path fill="#59636e" d="M767.5 106L766.5 106L766.5 103.8L762.3 103.8L762.3 103.0L766.4 97.3L767.5 97.3L767.5 103.0L769.1 103.0L769.1 103.8L767.5 103.8L767.5 106ZM763.4 103.0L766.5 103.0L766.5 98.5L763.4 103.0ZM773.3 106.1L773.3 106.1Q772.6 106.1 772.0 105.8Q771.5 105.5 771.1 105.0Q770.7 104.4 770.5 103.6Q770.2 102.8 770.2 101.7L770.2 101.7Q770.2 100.2 770.6 99.2Q771.0 98.2 771.7 97.7Q772.4 97.3 773.3 97.3L773.3 97.3Q774.0 97.3 774.6 97.5Q775.1 97.8 775.5 98.4Q775.9 98.9 776.1 99.8Q776.3 100.6 776.3 101.7L776.3 101.7Q776.3 103.2 776.0 104.2Q775.6 105.1 774.9 105.6Q774.2 106.1 773.3 106.1ZM773.3 105.3L773.3 105.3Q773.8 105.3 774.2 105.0Q774.6 104.8 774.8 104.4Q775.1 103.9 775.2 103.2Q775.3 102.6 775.3 101.7L775.3 101.7Q775.3 100.8 775.2 100.1Q775.1 99.5 774.8 99.0Q774.6 98.5 774.2 98.3Q773.8 98.1 773.3 98.1L773.3 98.1Q772.8 98.1 772.4 98.3Q772.0 98.5 771.7 99.0Q771.5 99.5 771.4 100.1Q771.3 100.8 771.3 101.7L771.3 101.7Q771.3 102.6 771.4 103.2Q771.5 103.9 771.7 104.4Q772.0 104.8 772.4 105.0Q772.8 105.3 773.3 105.3Z "/></g><mask id="satori_om-id-2-12-1"><rect x="751" y="114" width="36" height="80" fill="#fff"/></mask><path x="751" y="114" width="36" height="80" fill="#216e39" d="M756,114 h26 a5,5 0 0 1 5,5 v75 a0,0 0 0 1 0,0 h-36 a0,0 0 0 1 0,0 v-75 a5,5 0 0 1 5,-5"/><mask id="satori_om-id-3"><rect x="0" y="206" width="800" height="18" fill="#fff"/></mask><mask id="satori_om-id-3-0"><rect x="0" y="206" width="66" height="18" fill="#fff"/></mask><g  ><path fill="#59636e" d="M6.1 220L0.6 220L0.6 219.7Q0.6 219.1 0.8 218.5Q1.0 218.0 1.4 217.6Q1.8 217.1 2.3 216.8Q2.8 216.4 3.3 216.1Q3.8 215.7 4.2 215.4Q4.6 215.0 4.8 214.6Q5.1 214.2 5.1 213.7L5.1 213.7Q5.1 213.2 4.8 212.8Q4.6 212.5 4.2 212.3Q3.9 212.1 3.3 212.1L3.3 212.1Q2.7 212.1 2.3 212.3Q1.9 212.6 1.7 213.0Q1.5 213.4 1.5 213.9L1.5 213.9L0.5 213.9Q0.5 213.1 0.9 212.5Q1.2 211.9 1.9 211.6Q2.5 211.3 3.4 211.3L3.4 211.3Q4.2 211.3 4.8 211.6Q5.4 211.9 5.7 212.4Q6.0 213.0 6.0 213.7L6.0 213.7Q6.0 214.3 5.8 214.7Q5.6 215.2 5.2 215.6Q4.8 216.0 4.4 216.3Q3.9 216.6 3.5 217.0Q3.0 217.3 2.6 217.6Q2.2 217.9 1.9 218.3Q1.7 218.7 1.6 219.1L1.6 219.1L6.1 219.1L6.1 220ZM10.4 220.1L10.4 220.1Q9.7 220.1 9.1 219.8Q8.5 219.5 8.1 219.0Q7.8 218.4 7.5 217.6Q7.3 216.8 7.3 215.7L7.3 215.7Q7.3 214.2 7.7 213.2Q8.1 212.2 8.8 211.7Q9.5 211.3 10.4 211.3L10.4 211.3Q11.1 211.3 11.7 211.5Q12.2 211.8 12.6 212.4Q13.0 212.9 13.2 213.8Q13.4 214.6 13.4 215.7L13.4 215.7Q13.4 217.2 13.1 218.2Q12.7 219.1 12.0 219.6Q11.3 220.1 10.4 220.1ZM10.4 219.3L10.4 219.3Q10.9 219.3 11.3 219.0Q11.7 218.8 11.9 218.4Q12.2 217.9 12.3 217.2Q12.4 216.6 12.4 215.7L12.4 215.7Q12.4 214.8 12.3 214.1Q12.2 213.5 11.9 213.0Q11.7 212.5 11.3 212.3Q10.9 212.1 10.4 212.1L10.4 212.1Q9.9 212.1 9.5 212.3Q9.1 212.5 8.8 213.0Q8.6 213.5 8.5 214.1Q8.3 214.8 8.3 215.7L8.3 215.7Q8.3 216.6 8.5 217.2Q8.6 217.9 8.8 218.4Q9.1 218.8 9.5 219.0Q9.9 219.3 10.4 219.3ZM20.1 220L14.6 220L14.6 219.7Q14.6 219.1 14.9 218.5Q15.1 218.0 15.5 217.6Q15.9 217.1 16.4 216.8Q16.9 216.4 17.3 216.1Q17.8 215.7 18.2 215.4Q18.6 215.0 18.9 214.6Q19.1 214.2 19.1 213.7L19.1 213.7Q19.1 213.2 18.9 212.8Q18.7 212.5 18.3 212.3Q17.9 212.1 17.4 212.1L17.4 212.1Q16.8 212.1 16.4 212.3Q16.0 212.6 15.8 213.0Q15.5 213.4 15.6 213.9L15.6 213.9L14.6 213.9Q14.6 213.1 14.9 212.5Q15.3 211.9 15.9 211.6Q16.6 211.3 17.4 211.3L17.4 211.3Q18.3 211.3 18.9 211.6Q19.5 211.9 19.8 212.4Q20.1 213.0 20.1 213.7L20.1 213.7Q20.1 214.3 19.9 214.7Q19.7 215.2 19.3 215.6Q18.9 216.0 18.4 216.3Q18 216.6 17.5 217.0Q17.1 217.3 16.7 217.6Q16.3 217.9 16.0 218.3Q15.7 218.7 15.7 219.1L15.7 219.1L20.1 219.1L20.1 220ZM24.5 220.1L24.5 220.1Q23.7 220.1 23.1 219.8Q22.5 219.6 22.1 219.1Q21.8 218.6 21.6 217.9Q21.4 217.1 21.4 216.2L21.4 216.2Q21.4 214.9 21.6 213.9Q21.8 213.0 22.2 212.4Q22.6 211.8 23.2 211.5Q23.8 211.2 24.6 211.2L24.6 211.2Q25.2 211.2 25.7 211.4Q26.2 211.6 26.5 211.8Q26.9 212.1 27.1 212.5Q27.3 212.9 27.4 213.4L27.4 213.4L26.4 213.4Q26.4 213.1 26.2 212.8Q26.1 212.6 25.8 212.4Q25.6 212.2 25.3 212.2Q24.9 212.1 24.6 212.1L24.6 212.1Q23.9 212.1 23.5 212.4Q23.0 212.6 22.8 213.2Q22.5 213.7 22.4 214.4Q22.3 215.1 22.3 216.0L22.3 216.0L22.4 216.0Q22.5 215.6 22.8 215.2Q23.2 214.9 23.6 214.7Q24.1 214.5 24.7 214.5L24.7 214.5Q25.5 214.5 26.1 214.9Q26.8 215.2 27.1 215.8Q27.4 216.4 27.4 217.2L27.4 217.2Q27.4 218.1 27.1 218.8Q26.7 219.4 26.0 219.7Q25.3 220.1 24.5 220.1ZM24.5 219.2L24.5 219.2Q25.1 219.2 25.5 219.0Q26.0 218.8 26.2 218.3Q26.4 217.8 26.4 217.3L26.4 217.3Q26.4 216.6 26.2 216.2Q26.0 215.8 25.5 215.5Q25.1 215.3 24.5 215.3L24.5 215.3Q23.9 215.3 23.4 215.6Q23.0 215.8 22.7 216.3Q22.5 216.7 22.5 217.3L22.5 217.3Q22.5 217.9 22.8 218.3Q23.0 218.8 23.5 219.0Q23.9 219.2 24.5 219.2ZM32.5 217.3L29.0 217.3L29.0 216.4L32.5 216.4L32.5 217.3ZM37.1 220.1L37.1 220.1Q36.4 220.1 35.8 219.8Q35.3 219.5 34.9 219.0Q34.5 218.4 34.3 217.6Q34.1 216.8 34.1 215.7L34.1 215.7Q34.1 214.2 34.4 213.2Q34.8 212.2 35.5 211.7Q36.2 211.3 37.1 211.3L37.1 211.3Q37.8 211.3 38.4 211.5Q38.9 211.8 39.3 212.4Q39.7 212.9 39.9 213.8Q40.2 214.6 40.2 215.7L40.2 215.7Q40.2 217.2 39.8 218.2Q39.4 219.1 38.7 219.6Q38.0 220.1 37.1 220.1ZM37.1 219.3L37.1 219.3Q37.6 219.3 38.0 219.0Q38.4 218.8 38.7 218.4Q38.9 217.9 39.0 217.2Q39.2 216.6 39.2 215.7L39.2 215.7Q39.2 214.8 39.0 214.1Q38.9 213.5 38.7 213.0Q38.4 212.5 38.0 212.3Q37.6 212.1 37.1 212.1L37.1 212.1Q36.6 212.1 36.2 212.3Q35.8 212.5 35.5 213.0Q35.3 213.5 35.2 214.1Q35.1 214.8 35.1 215.7L35.1 215.7Q35.1 216.6 35.2 217.2Q35.3 217.9 35.5 218.4Q35.8 218.8 36.2 219.0Q36.6 219.3 37.1 219.3ZM44.8 220.1L44.8 220.1Q44.0 220.1 43.4 219.8Q42.9 219.6 42.5 219.1Q42.1 218.6 41.9 217.9Q41.7 217.1 41.7 216.2L41.7 216.2Q41.7 214.9 41.9 213.9Q42.1 213.0 42.5 212.4Q42.9 211.8 43.5 211.5Q44.1 211.2 44.9 211.2L44.9 211.2Q45.5 211.2 46.0 211.4Q46.5 211.6 46.9 211.8Q47.2 212.1 47.4 212.5Q47.7 212.9 47.7 213.4L47.7 213.4L46.8 213.4Q46.7 213.1 46.5 212.8Q46.4 212.6 46.1 212.4Q45.9 212.2 45.6 212.2Q45.3 212.1 44.9 212.1L44.9 212.1Q44.2 212.1 43.8 212.4Q43.4 212.6 43.1 213.2Q42.9 213.7 42.8 214.4Q42.7 215.1 42.6 216.0L42.6 216.0L42.7 216.0Q42.8 215.6 43.2 215.2Q43.5 214.9 44.0 214.7Q44.4 214.5 45.0 214.5L45.0 214.5Q45.9 214.5 46.5 214.9Q47.1 215.2 47.4 215.8Q47.8 216.4 47.8 217.2L47.8 217.2Q47.8 218.1 47.4 218.8Q47.0 219.4 46.3 219.7Q45.7 220.1 44.8 220.1ZM44.8 219.2L44.8 219.2Q45.4 219.2 45.8 219.0Q46.3 218.8 46.5 218.3Q46.8 217.8 46.8 217.3L46.8 217.3Q46.8 216.6 46.5 216.2Q46.3 215.8 45.9 215.5Q45.4 215.3 44.8 215.3L44.8 215.3Q44.2 215.3 43.8 215.6Q43.3 215.8 43.1 216.3Q42.8 216.7 42.8 217.3L42.8 217.3Q42.8 217.9 43.1 218.3Q43.3 218.8 43.8 219.0Q44.2 219.2 44.8 219.2ZM52.8 217.3L49.4 217.3L49.4 216.4L52.8 216.4L52.8 217.3ZM59.2 220L53.6 220L53.6 219.7Q53.6 219.1 53.9 218.5Q54.1 218.0 54.5 217.6Q54.9 217.1 55.4 216.8Q55.9 216.4 56.4 216.1Q56.9 215.7 57.3 215.4Q57.6 215.0 57.9 214.6Q58.1 214.2 58.1 213.7L58.1 213.7Q58.1 213.2 57.9 212.8Q57.7 212.5 57.3 212.3Q56.9 212.1 56.4 212.1L56.4 212.1Q55.8 212.1 55.4 212.3Q55.0 212.6 54.8 213.0Q54.6 213.4 54.6 213.9L54.6 213.9L53.6 213.9Q53.6 213.1 53.9 212.5Q54.3 211.9 54.9 211.6Q55.6 211.3 56.4 211.3L56.4 211.3Q57.3 211.3 57.9 211.6Q58.5 211.9 58.8 212.4Q59.1 213.0 59.1 213.7L59.1 213.7Q59.1 214.3 58.9 214.7Q58.7 215.2 58.3 215.6Q57.9 216.0 57.5 216.3Q57.0 216.6 56.6 217.0Q56.1 217.3 55.7 217.6Q55.3 217.9 55.0 218.3Q54.8 218.7 54.7 219.1L54.7 219.1L59.2 219.1L59.2 220ZM63.5 211.2L63.5 211.2Q64.3 211.2 64.9 211.5Q65.4 211.7 65.8 212.2Q66.2 212.8 66.4 213.5Q66.6 214.2 66.6 215.2L66.6 215.2Q66.6 216.5 66.4 217.4Q66.2 218.3 65.8 218.9Q65.4 219.5 64.8 219.8Q64.2 220.1 63.4 220.1L63.4 220.1Q62.8 220.1 62.3 219.9Q61.8 219.8 61.4 219.5Q61.1 219.2 60.9 218.8Q60.6 218.4 60.6 217.9L60.6 217.9L61.5 217.9Q61.6 218.2 61.8 218.5Q61.9 218.8 62.2 218.9Q62.4 219.1 62.7 219.2Q63.0 219.3 63.4 219.3L63.4 219.3Q64.1 219.3 64.5 219.0Q64.9 218.7 65.2 218.2Q65.4 217.7 65.5 216.9Q65.6 216.2 65.7 215.3L65.7 215.3L65.6 215.3Q65.5 215.8 65.1 216.1Q64.8 216.4 64.3 216.6Q63.9 216.8 63.3 216.8L63.3 216.8Q62.4 216.8 61.8 216.5Q61.2 216.1 60.9 215.5Q60.5 214.9 60.5 214.1L60.5 214.1Q60.5 213.2 60.9 212.6Q61.3 211.9 62.0 211.6Q62.6 211.2 63.5 211.2ZM63.5 212.1L63.5 212.1Q62.9 212.1 62.5 212.3Q62.0 212.6 61.8 213.0Q61.5 213.5 61.5 214.1L61.5 214.1Q61.5 214.7 61.8 215.1Q62.0 215.6 62.4 215.8Q62.9 216.0 63.5 216.0L63.5 216.0Q64.1 216.0 64.5 215.8Q65.0 215.5 65.2 215.0Q65.5 214.6 65.5 214.0L65.5 214.0Q65.5 213.4 65.2 213.0Q65.0 212.6 64.5 212.3Q64.1 212.1 63.5 212.1Z "/></g><mask id="satori_om-id-3-1"><rect x="361" y="206" width="79" height="18" fill="#fff"/></mask><g  ><path fill="#59636e" d="M365.0 220L363.5 220L361.3 211.3L362.5 211.3L363.7 216.6L364.3 219.1L364.3 219.1L364.9 216.6L366.2 211.3L367.5 211.3L368.9 216.5L369.4 219.1L369.5 219.1L370.0 216.5L371.3 211.3L372.4 211.3L370.2 220L368.8 220L367.5 215.1L366.9 212.4L366.8 212.4L366.2 215.1L365.0 220ZM376.1 220.1L376.1 220.1Q375.2 220.1 374.5 219.7Q373.9 219.3 373.6 218.6Q373.2 217.9 373.2 216.9L373.2 216.9Q373.2 215.9 373.6 215.1Q373.9 214.4 374.5 214.0Q375.1 213.6 376.0 213.6L376.0 213.6Q377.0 213.6 377.6 214.0Q378.2 214.5 378.5 215.2Q378.8 216.0 378.7 217.0L378.7 217.0L374.2 217.0Q374.2 217.8 374.4 218.3Q374.6 218.8 375.1 219.1Q375.5 219.4 376.1 219.4L376.1 219.4Q376.7 219.4 377.2 219.0Q377.6 218.7 377.8 218.2L377.8 218.2L378.7 218.2Q378.6 218.8 378.2 219.2Q377.8 219.7 377.3 219.9Q376.7 220.1 376.1 220.1ZM374.2 216.3L374.2 216.3L377.8 216.3Q377.8 215.7 377.6 215.3L377.6 215.3Q377.4 214.8 377.0 214.6Q376.6 214.4 376.0 214.4L376.0 214.4Q375.5 214.4 375.1 214.6Q374.7 214.8 374.4 215.3L374.4 215.3Q374.2 215.7 374.2 216.3ZM382.5 220.1L382.5 220.1Q381.6 220.1 381.0 219.7Q380.3 219.3 380.0 218.6Q379.7 217.9 379.7 216.9L379.7 216.9Q379.7 215.9 380.0 215.1Q380.3 214.4 381.0 214.0Q381.6 213.6 382.5 213.6L382.5 213.6Q383.5 213.6 384.1 214.0Q384.7 214.5 385.0 215.2Q385.3 216.0 385.2 217.0L385.2 217.0L380.6 217.0Q380.6 217.8 380.9 218.3Q381.1 218.8 381.5 219.1Q382.0 219.4 382.5 219.4L382.5 219.4Q383.2 219.4 383.6 219.0Q384.1 218.7 384.2 218.2L384.2 218.2L385.1 218.2Q385.0 218.8 384.7 219.2Q384.3 219.7 383.8 219.9Q383.2 220.1 382.5 220.1ZM380.6 216.3L380.6 216.3L384.2 216.3Q384.2 215.7 384.0 215.3L384.0 215.3Q383.8 214.8 383.4 214.6Q383.0 214.4 382.5 214.4L382.5 214.4Q381.9 214.4 381.5 214.6Q381.1 214.8 380.9 215.3L380.9 215.3Q380.7 215.7 380.6 216.3ZM387.6 220L386.6 220L386.6 211.3L387.6 211.3L387.6 216.9L388.1 216.3L390.7 213.7L391.9 213.7L389.5 216.1L392.0 220L390.9 220L389.2 217.4L388.8 216.8L387.6 218.0L387.6 220ZM394.2 220L393.2 220L393.2 211.3L394.2 211.3L394.2 220ZM396.5 222.0L395.8 222.0L395.8 221.2L396.4 221.2Q396.7 221.2 396.9 221.1Q397.1 221.0 397.2 220.9Q397.4 220.7 397.5 220.4L397.5 220.4L397.8 219.6L395.3 213.7L396.4 213.7L397.7 217.1L398.3 218.6L398.3 218.6L398.8 217.1L400.1 213.7L401.1 213.7L398.4 220.7Q398.2 221.2 398.0 221.4Q397.7 221.7 397.4 221.9Q397.0 222.0 396.5 222.0L396.5 222.0Z M408.0 220L406.9 220Q406.3 220 405.9 219.7Q405.6 219.4 405.6 218.6L405.6 218.6L405.6 214.5L404.4 214.5L404.4 213.7L405.6 213.7L405.6 211.8L406.5 211.7L406.5 213.7L408.0 213.7L408.0 214.5L406.6 214.5L406.6 218.5Q406.6 218.8 406.7 219.0Q406.9 219.2 407.2 219.2L407.2 219.2L408.0 219.2L408.0 220ZM412.0 220.1L412.0 220.1Q411.3 220.1 410.7 219.9Q410.2 219.7 409.8 219.2Q409.4 218.8 409.2 218.2Q408.9 217.6 408.9 216.9L408.9 216.9Q408.9 215.9 409.3 215.2Q409.7 214.4 410.4 214.0Q411.1 213.6 412.0 213.6L412.0 213.6Q412.7 213.6 413.2 213.8Q413.8 214.0 414.2 214.5Q414.6 214.9 414.8 215.5Q415.0 216.1 415.0 216.9L415.0 216.9Q415.0 217.8 414.6 218.5Q414.3 219.3 413.6 219.7Q412.9 220.1 412.0 220.1ZM412.0 219.3L412.0 219.3Q412.6 219.3 413.1 219.0Q413.5 218.7 413.8 218.2Q414.0 217.6 414.0 216.9L414.0 216.9Q414.0 216.3 413.9 215.8Q413.7 215.4 413.5 215.1Q413.2 214.8 412.8 214.6Q412.5 214.4 412.0 214.4L412.0 214.4Q411.4 214.4 410.9 214.7Q410.5 215.0 410.2 215.5Q409.9 216.1 409.9 216.9L409.9 216.9Q409.9 217.4 410.1 217.9Q410.2 218.3 410.5 218.6Q410.8 218.9 411.1 219.1Q411.5 219.3 412.0 219.3ZM419.5 220L418.4 220Q417.7 220 417.4 219.7Q417.0 219.4 417.0 218.6L417.0 218.6L417.0 214.5L415.8 214.5L415.8 213.7L417.0 213.7L417.0 211.8L418.0 211.7L418.0 213.7L419.4 213.7L419.4 214.5L418.0 214.5L418.0 218.5Q418.0 218.8 418.2 219.0Q418.3 219.2 418.6 219.2L418.6 219.2L419.5 219.2L419.5 220ZM423.0 220.1L423.0 220.1Q422.5 220.1 422.0 219.9Q421.5 219.7 421.1 219.2Q420.8 218.8 420.6 218.2Q420.4 217.6 420.4 216.8L420.4 216.8Q420.4 215.8 420.7 215.1Q421.1 214.4 421.7 214.0Q422.2 213.6 423.0 213.6L423.0 213.6Q423.6 213.6 424.0 213.8Q424.5 213.9 424.8 214.3Q425.1 214.6 425.2 215.0L425.2 215.0L425.3 215.0L425.3 213.7L426.3 213.7L426.3 220L425.3 220L425.3 218.7L425.2 218.7Q425.0 219.3 424.4 219.7Q423.8 220.1 423.0 220.1ZM423.3 219.3L423.3 219.3Q424.0 219.3 424.4 219.0Q424.8 218.7 425.1 218.2Q425.3 217.8 425.3 217.2L425.3 217.2L425.3 216.5Q425.3 215.9 425.0 215.4Q424.8 215.0 424.4 214.7Q424.0 214.4 423.4 214.4L423.4 214.4Q422.8 214.4 422.3 214.7Q421.9 215.0 421.6 215.5Q421.4 216.1 421.4 216.8L421.4 216.8Q421.4 217.6 421.6 218.2Q421.9 218.7 422.3 219.0Q422.7 219.3 423.3 219.3ZM429.1 220L428.1 220L428.1 211.3L429.1 211.3L429.1 220ZM433.0 220.1L433.0 220.1Q432.4 220.1 432.0 220.0Q431.5 219.8 431.2 219.6Q430.8 219.3 430.6 218.9Q430.5 218.6 430.5 218.1L430.5 218.1L431.4 218.1Q431.4 218.6 431.6 218.8Q431.9 219.1 432.2 219.3Q432.6 219.4 433.0 219.4L433.0 219.4Q433.8 219.4 434.2 219.1Q434.6 218.8 434.6 218.3L434.6 218.3Q434.6 217.9 434.4 217.7Q434.2 217.5 433.9 217.4Q433.5 217.3 433.0 217.2L433.0 217.2Q432.2 217.1 431.7 216.9Q431.2 216.7 430.9 216.4Q430.6 216.0 430.6 215.4L430.6 215.4Q430.6 214.9 430.9 214.5Q431.2 214.0 431.8 213.8Q432.3 213.6 433.0 213.6L433.0 213.6Q433.8 213.6 434.3 213.8Q434.8 214.0 435.1 214.5Q435.4 214.9 435.4 215.5L435.4 215.5L434.5 215.5Q434.5 215.1 434.3 214.8Q434.1 214.6 433.8 214.4Q433.4 214.3 433.0 214.3L433.0 214.3Q432.3 214.3 432.0 214.6Q431.6 214.9 431.6 215.3L431.6 215.3Q431.6 215.7 431.8 215.9Q432.0 216.1 432.3 216.2Q432.7 216.3 433.3 216.4L433.3 216.4Q434.0 216.5 434.5 216.7Q435.0 216.9 435.3 217.3Q435.5 217.6 435.5 218.2L435.5 218.2Q435.5 218.8 435.2 219.3Q434.9 219.7 434.3 219.9Q433.8 220.1 433.0 220.1ZM438.2 214.6L437.7 214.6L437.7 213.9L437.8 213.1L437.2 213.6L436.6 214.0L436.4 213.5L436.9 213.2L437.6 212.9L436.9 212.6L436.4 212.3L436.6 211.9L437.2 212.2L437.8 212.7L437.7 211.9L437.7 211.3L438.2 211.3L438.2 211.9L438.1 212.7L438.7 212.2L439.3 211.9L439.5 212.3L438.9 212.6L438.2 212.9L438.9 213.2L439.5 213.5L439.3 214.0L438.7 213.6L438.1 213.1L438.2 213.9L438.2 214.6Z "/></g><mask id="satori_om-id-3-2"><rect x="734" y="206" width="66" height="18" fill="#fff"/></mask><g  ><path fill="#59636e" d="M740.1 220L734.6 220L734.6 219.7Q734.6 219.1 734.8 218.5Q735.0 218.0 735.4 217.6Q735.8 217.1 736.3 216.8Q736.8 216.4 737.3 216.1Q737.8 215.7 738.2 215.4Q738.6 215.0 738.8 214.6Q739.1 214.2 739.1 213.7L739.1 213.7Q739.1 213.2 738.8 212.8Q738.6 212.5 738.2 212.3Q737.9 212.1 737.3 212.1L737.3 212.1Q736.7 212.1 736.3 212.3Q735.9 212.6 735.7 213.0Q735.5 213.4 735.5 213.9L735.5 213.9L734.5 213.9Q734.5 213.1 734.9 212.5Q735.2 211.9 735.9 211.6Q736.5 211.3 737.4 211.3L737.4 211.3Q738.2 211.3 738.8 211.6Q739.4 211.9 739.7 212.4Q740.0 213.0 740.0 213.7L740.0 213.7Q740.0 214.3 739.8 214.7Q739.6 215.2 739.2 215.6Q738.8 216.0 738.4 216.3Q737.9 216.6 737.5 217.0Q737.0 217.3 736.6 217.6Q736.2 217.9 735.9 218.3Q735.7 218.7 735.6 219.1L735.6 219.1L740.1 219.1L740.1 220ZM744.4 220.1L744.4 220.1Q743.7 220.1 743.1 219.8Q742.5 219.5 742.1 219.0Q741.8 218.4 741.5 217.6Q741.3 216.8 741.3 215.7L741.3 215.7Q741.3 214.2 741.7 213.2Q742.1 212.2 742.8 211.7Q743.5 211.3 744.4 211.3L744.4 211.3Q745.1 211.3 745.7 211.5Q746.2 211.8 746.6 212.4Q747.0 212.9 747.2 213.8Q747.4 214.6 747.4 215.7L747.4 215.7Q747.4 217.2 747.1 218.2Q746.7 219.1 746.0 219.6Q745.3 220.1 744.4 220.1ZM744.4 219.3L744.4 219.3Q744.9 219.3 745.3 219.0Q745.7 218.8 745.9 218.4Q746.2 217.9 746.3 217.2Q746.4 216.6 746.4 215.7L746.4 215.7Q746.4 214.8 746.3 214.1Q746.2 213.5 745.9 213.0Q745.7 212.5 745.3 212.3Q744.9 212.1 744.4 212.1L744.4 212.1Q743.9 212.1 743.5 212.3Q743.1 212.5 742.8 213.0Q742.6 213.5 742.5 214.1Q742.3 214.8 742.3 215.7L742.3 215.7Q742.3 216.6 742.5 217.2Q742.6 217.9 742.8 218.4Q743.1 218.8 743.5 219.0Q743.9 219.3 744.4 219.3ZM754.1 220L748.6 220L748.6 219.7Q748.6 219.1 748.9 218.5Q749.1 218.0 749.5 217.6Q749.9 217.1 750.4 216.8Q750.9 216.4 751.3 216.1Q751.8 215.7 752.2 215.4Q752.6 215.0 752.9 214.6Q753.1 214.2 753.1 213.7L753.1 213.7Q753.1 213.2 752.9 212.8Q752.7 212.5 752.3 212.3Q751.9 212.1 751.4 212.1L751.4 212.1Q750.8 212.1 750.4 212.3Q750.0 212.6 749.8 213.0Q749.5 213.4 749.6 213.9L749.6 213.9L748.6 213.9Q748.6 213.1 748.9 212.5Q749.3 211.9 749.9 211.6Q750.6 211.3 751.4 211.3L751.4 211.3Q752.3 211.3 752.9 211.6Q753.5 211.9 753.8 212.4Q754.1 213.0 754.1 213.7L754.1 213.7Q754.1 214.3 753.9 214.7Q753.7 215.2 753.3 215.6Q752.9 216.0 752.5 216.3Q752.0 216.6 751.5 217.0Q751.1 217.3 750.7 217.6Q750.3 217.9 750.0 218.3Q749.7 218.7 749.7 219.1L749.7 219.1L754.1 219.1L754.1 220ZM758.5 220.1L758.5 220.1Q757.7 220.1 757.1 219.8Q756.5 219.6 756.1 219.1Q755.8 218.6 755.6 217.9Q755.4 217.1 755.4 216.2L755.4 216.2Q755.4 214.9 755.6 213.9Q755.8 213.0 756.2 212.4Q756.6 211.8 757.2 211.5Q757.8 211.2 758.6 211.2L758.6 211.2Q759.2 211.2 759.7 211.4Q760.2 211.6 760.5 211.8Q760.9 212.1 761.1 212.5Q761.3 212.9 761.4 213.4L761.4 213.4L760.4 213.4Q760.4 213.1 760.2 212.8Q760.1 212.6 759.8 212.4Q759.6 212.2 759.3 212.2Q758.9 212.1 758.6 212.1L758.6 212.1Q757.9 212.1 757.5 212.4Q757.0 212.6 756.8 213.2Q756.5 213.7 756.4 214.4Q756.3 215.1 756.3 216.0L756.3 216.0L756.4 216.0Q756.5 215.6 756.8 215.2Q757.2 214.9 757.6 214.7Q758.1 214.5 758.7 214.5L758.7 214.5Q759.5 214.5 760.1 214.9Q760.8 215.2 761.1 215.8Q761.4 216.4 761.4 217.2L761.4 217.2Q761.4 218.1 761.1 218.8Q760.7 219.4 760.0 219.7Q759.3 220.1 758.5 220.1ZM758.5 219.2L758.5 219.2Q759.1 219.2 759.5 219.0Q760.0 218.8 760.2 218.3Q760.4 217.8 760.4 217.3L760.4 217.3Q760.4 216.6 760.2 216.2Q760.0 215.8 759.5 215.5Q759.1 215.3 758.5 215.3L758.5 215.3Q757.9 215.3 757.4 215.6Q757.0 215.8 756.7 216.3Q756.5 216.7 756.5 217.3L756.5 217.3Q756.5 217.9 756.8 218.3Q757.0 218.8 757.5 219.0Q757.9 219.2 758.5 219.2ZM766.5 217.3L763.0 217.3L763.0 216.4L766.5 216.4L766.5 217.3ZM771.1 220.1L771.1 220.1Q770.4 220.1 769.8 219.8Q769.3 219.5 768.9 219.0Q768.5 218.4 768.3 217.6Q768.1 216.8 768.1 215.7L768.1 215.7Q768.1 214.2 768.4 213.2Q768.8 212.2 769.5 211.7Q770.2 211.3 771.1 211.3L771.1 211.3Q771.8 211.3 772.4 211.5Q772.9 211.8 773.3 212.4Q773.7 212.9 773.9 213.8Q774.2 214.6 774.2 215.7L774.2 215.7Q774.2 217.2 773.8 218.2Q773.4 219.1 772.7 219.6Q772.0 220.1 771.1 220.1ZM771.1 219.3L771.1 219.3Q771.6 219.3 772.0 219.0Q772.4 218.8 772.7 218.4Q772.9 217.9 773.0 217.2Q773.2 216.6 773.2 215.7L773.2 215.7Q773.2 214.8 773.0 214.1Q772.9 213.5 772.7 213.0Q772.4 212.5 772.0 212.3Q771.6 212.1 771.1 212.1L771.1 212.1Q770.6 212.1 770.2 212.3Q769.8 212.5 769.5 213.0Q769.3 213.5 769.2 214.1Q769.1 214.8 769.1 215.7L769.1 215.7Q769.1 216.6 769.2 217.2Q769.3 217.9 769.5 218.4Q769.8 218.8 770.2 219.0Q770.6 219.3 771.1 219.3ZM778.6 211.2L778.6 211.2Q779.3 211.2 779.9 211.5Q780.5 211.7 780.9 212.2Q781.3 212.8 781.4 213.5Q781.6 214.2 781.6 215.2L781.6 215.2Q781.6 216.5 781.4 217.4Q781.2 218.3 780.8 218.9Q780.4 219.5 779.8 219.8Q779.2 220.1 778.4 220.1L778.4 220.1Q777.8 220.1 777.3 219.9Q776.9 219.8 776.5 219.5Q776.1 219.2 775.9 218.8Q775.7 218.4 775.6 217.9L775.6 217.9L776.6 217.9Q776.6 218.2 776.8 218.5Q777.0 218.8 777.2 218.9Q777.5 219.1 777.8 219.2Q778.1 219.3 778.4 219.3L778.4 219.3Q779.1 219.3 779.5 219.0Q780.0 218.7 780.2 218.2Q780.5 217.7 780.6 216.9Q780.7 216.2 780.7 215.3L780.7 215.3L780.6 215.3Q780.5 215.8 780.2 216.1Q779.9 216.4 779.4 216.6Q778.9 216.8 778.3 216.8L778.3 216.8Q777.5 216.8 776.9 216.5Q776.3 216.1 775.9 215.5Q775.6 214.9 775.6 214.1L775.6 214.1Q775.6 213.2 775.9 212.6Q776.3 211.9 777.0 211.6Q777.7 211.2 778.6 211.2ZM778.5 212.1L778.5 212.1Q777.9 212.1 777.5 212.3Q777.1 212.6 776.8 213.0Q776.6 213.5 776.6 214.1L776.6 214.1Q776.6 214.7 776.8 215.1Q777.0 215.6 777.5 215.8Q777.9 216.0 778.5 216.0L778.5 216.0Q779.1 216.0 779.6 215.8Q780.0 215.5 780.3 215.0Q780.5 214.6 780.5 214.0L780.5 214.0Q780.5 213.4 780.3 213.0Q780.0 212.6 779.6 212.3Q779.1 212.1 778.5 212.1ZM786.6 217.3L783.2 217.3L783.2 216.4L786.6 216.4L786.6 217.3ZM793.0 220L787.4 220L787.4 219.7Q787.4 219.1 787.7 218.5Q787.9 218.0 788.3 217.6Q788.7 217.1 789.2 216.8Q789.7 216.4 790.2 216.1Q790.7 215.7 791.0 215.4Q791.4 215.0 791.7 214.6Q791.9 214.2 791.9 213.7L791.9 213.7Q791.9 213.2 791.7 212.8Q791.5 212.5 791.1 212.3Q790.7 212.1 790.2 212.1L790.2 212.1Q789.6 212.1 789.2 212.3Q788.8 212.6 788.6 213.0Q788.3 213.4 788.4 213.9L788.4 213.9L787.4 213.9Q787.4 213.1 787.7 212.5Q788.1 211.9 788.7 211.6Q789.4 211.3 790.2 211.3L790.2 211.3Q791.1 211.3 791.7 211.6Q792.3 211.9 792.6 212.4Q792.9 213.0 792.9 213.7L792.9 213.7Q792.9 214.3 792.7 214.7Q792.5 215.2 792.1 215.6Q791.7 216.0 791.3 216.3Q790.8 216.6 790.4 217.0Q789.9 217.3 789.5 217.6Q789.1 217.9 788.8 218.3Q788.6 218.7 788.5 219.1L788.5 219.1L793.0 219.1L793.0 220ZM797.3 220.1L797.3 220.1Q796.5 220.1 795.9 219.8Q795.3 219.6 795.0 219.1Q794.6 218.6 794.4 217.9Q794.2 217.1 794.2 216.2L794.2 216.2Q794.2 214.9 794.4 213.9Q794.6 213.0 795.0 212.4Q795.4 211.8 796.0 211.5Q796.6 211.2 797.4 211.2L797.4 211.2Q798.0 211.2 798.5 211.4Q799.0 211.6 799.3 211.8Q799.7 212.1 799.9 212.5Q800.2 212.9 800.2 213.4L800.2 213.4L799.2 213.4Q799.2 213.1 799.0 212.8Q798.9 212.6 798.6 212.4Q798.4 212.2 798.1 212.2Q797.8 212.1 797.4 212.1L797.4 212.1Q796.7 212.1 796.3 212.4Q795.8 212.6 795.6 213.2Q795.4 213.7 795.3 214.4Q795.2 215.1 795.1 216.0L795.1 216.0L795.2 216.0Q795.3 215.6 795.7 215.2Q796.0 214.9 796.5 214.7Q796.9 214.5 797.5 214.5L797.5 214.5Q798.4 214.5 799.0 214.9Q799.6 215.2 799.9 215.8Q800.3 216.4 800.3 217.2L800.3 217.2Q800.3 218.1 799.9 218.8Q799.5 219.4 798.8 219.7Q798.2 220.1 797.3 220.1ZM797.3 219.2L797.3 219.2Q797.9 219.2 798.3 219.0Q798.8 218.8 799.0 218.3Q799.3 217.8 799.3 217.3L799.3 217.3Q799.3 216.6 799.0 216.2Q798.8 215.8 798.3 215.5Q797.9 215.3 797.3 215.3L797.3 215.3Q796.7 215.3 796.2 215.6Q795.8 215.8 795.6 216.3Q795.3 216.7 795.3 217.3L795.3 217.3Q795.3 217.9 795.6 218.3Q795.8 218.8 796.3 219.0Q796.7 219.2 797.3 219.2Z "/></g></svg>